<svg width="48" height="48" viewBox="0 0 48 48" fill="none" xmlns="http://www.w3.org/2000/svg">
<circle cx="24" cy="24" r="24" fill="url(#paint0_linear_2715:55824)"/>
<circle cx="24.0013" cy="24.0001" r="21.3333" fill="black"/>
<path d="M18.4672 11.4433C18.0837 11.3851 18.0675 11.3783 18.248 11.3511C18.5939 11.2991 19.4106 11.37 19.9734 11.5009C21.2873 11.8063 22.4829 12.5887 23.7591 13.9783L24.0981 14.3474L24.5831 14.2712C26.6264 13.9501 28.7051 14.2053 30.4437 14.9907C30.9219 15.2068 31.6761 15.6369 31.7704 15.7475C31.8003 15.7827 31.8554 16.0094 31.8927 16.2514C32.0218 17.0885 31.9572 17.7302 31.6955 18.2095C31.553 18.4703 31.545 18.5529 31.6409 18.7761C31.7173 18.9542 31.9305 19.0861 32.1416 19.0858C32.5735 19.0852 33.0385 18.4022 33.2541 17.4518L33.3398 17.0743L33.5092 17.2621C34.4393 18.2926 35.1698 19.6979 35.2952 20.6982L35.3279 20.959L35.1716 20.7219C34.9026 20.3139 34.6322 20.0362 34.2861 19.8122C33.662 19.4084 33.0022 19.271 31.255 19.1809C29.6768 19.0996 28.7836 18.9678 27.898 18.6854C26.3911 18.2049 25.6315 17.5651 23.8416 15.2685C23.0466 14.2484 22.5552 13.684 22.0664 13.2295C20.9557 12.1968 19.8643 11.6552 18.4672 11.4433Z" fill="url(#paint1_linear_2715:55824)"/>
<path d="M32.1275 13.7207C32.1672 13.0371 32.2619 12.5863 32.4526 12.1745C32.528 12.0116 32.5986 11.8782 32.6096 11.8782C32.6204 11.8782 32.5876 11.9985 32.5366 12.1455C32.3981 12.5451 32.3753 13.0916 32.4707 13.7275C32.5919 14.5343 32.6608 14.6507 33.5329 15.5223C33.9418 15.9311 34.4176 16.4467 34.59 16.668L34.9036 17.0705L34.59 16.7829C34.2065 16.4311 33.3247 15.7451 33.1299 15.647C32.9992 15.5813 32.9798 15.5824 32.8992 15.6608C32.825 15.7331 32.8093 15.8417 32.7991 16.355C32.783 17.1551 32.6714 17.6687 32.4024 18.1822C32.2568 18.4599 32.2337 18.4006 32.3655 18.0872C32.4638 17.8531 32.4738 17.7502 32.4732 16.9757C32.4715 15.4194 32.2827 15.0453 31.1748 14.4044C30.8942 14.242 30.4316 14.0079 30.1471 13.884C29.8625 13.7602 29.6365 13.6523 29.6447 13.6442C29.6761 13.6137 30.7565 13.9221 31.1915 14.0857C31.8385 14.329 31.9451 14.3606 32.0237 14.3312C32.0765 14.3115 32.102 14.1616 32.1275 13.7207Z" fill="url(#paint2_linear_2715:55824)"/>
<path d="M19.2132 16.3833C18.4346 15.335 17.9528 13.7277 18.0571 12.5262L18.0893 12.1544L18.2666 12.186C18.5994 12.2454 19.1733 12.4543 19.442 12.6139C20.1794 13.0519 20.4986 13.6285 20.8234 15.1091C20.9185 15.5428 21.0433 16.0336 21.1008 16.1998C21.1932 16.4672 21.5426 17.0919 21.8267 17.4976C22.0313 17.7898 21.8954 17.9283 21.4431 17.8883C20.7524 17.8274 19.8167 17.1959 19.2132 16.3833Z" fill="url(#paint3_linear_2715:55824)"/>
<path d="M31.1818 24.185C27.5432 22.7523 26.2617 21.5086 26.2617 19.4103C26.2617 19.1015 26.2726 18.8489 26.2858 18.8489C26.2991 18.8489 26.4399 18.9508 26.5987 19.0754C27.3365 19.6541 28.1628 19.9013 30.4501 20.2276C31.7961 20.4197 32.5536 20.5748 33.2523 20.8014C35.4731 21.5217 36.8472 22.9834 37.1749 24.9744C37.2701 25.5529 37.2143 26.6378 37.0599 27.2095C36.9381 27.6612 36.5661 28.4752 36.4674 28.5065C36.4401 28.5151 36.4134 28.4126 36.4062 28.2731C36.3689 27.5255 35.9826 26.7977 35.3338 26.2525C34.5962 25.6326 33.6052 25.1391 31.1818 24.185Z" fill="url(#paint4_linear_2715:55824)"/>
<path d="M28.6276 24.78C28.582 24.5147 28.503 24.1759 28.4519 24.0271L28.3591 23.7566L28.5315 23.9459C28.7702 24.2078 28.9587 24.543 29.1186 24.9895C29.2406 25.3302 29.2543 25.4316 29.2534 25.9852C29.2524 26.5289 29.2372 26.6428 29.1246 26.9495C28.947 27.4331 28.7265 27.7761 28.3566 28.1442C27.692 28.8058 26.8374 29.172 25.6042 29.3239C25.3899 29.3502 24.7651 29.3947 24.2159 29.4226C22.8317 29.4931 21.9207 29.6386 21.102 29.9197C20.9844 29.96 20.8793 29.9847 20.8686 29.9743C20.8355 29.942 21.3928 29.6171 21.8532 29.4002C22.5023 29.0943 23.1485 28.9276 24.5962 28.6918C25.3114 28.5752 26.05 28.4339 26.2375 28.3777C28.0086 27.8467 28.919 26.4763 28.6276 24.78Z" fill="url(#paint5_linear_2715:55824)"/>
<path d="M30.2978 27.677C29.8144 26.6606 29.7034 25.6794 29.9682 24.7642C29.9966 24.6665 30.0422 24.5864 30.0696 24.5864C30.097 24.5864 30.211 24.6467 30.323 24.7204C30.5459 24.8671 30.9927 25.1141 32.183 25.7488C33.6683 26.5408 34.5154 27.154 35.0913 27.8547C35.5957 28.4683 35.9077 29.1672 36.058 30.0195C36.1431 30.5021 36.0931 31.6636 35.9665 32.1496C35.5671 33.6824 34.6389 34.8862 33.3151 35.5887C33.1212 35.6917 32.947 35.7762 32.9282 35.7766C32.9092 35.777 32.98 35.6012 33.0853 35.3861C33.5305 34.4756 33.5813 33.59 33.2445 32.6043C33.0383 32.0007 32.618 31.2642 31.7694 30.0195C30.7825 28.5724 30.5406 28.1873 30.2978 27.677Z" fill="url(#paint6_linear_2715:55824)"/>
<path d="M16.6286 33.1606C17.9788 32.0456 19.6589 31.2536 21.1893 31.0104C21.8489 30.9056 22.9476 30.9472 23.5583 31.1001C24.5373 31.3451 25.413 31.8939 25.8685 32.5477C26.3136 33.1867 26.5046 33.7435 26.7034 34.9825C26.7818 35.4713 26.8671 35.962 26.8929 36.0731C27.0422 36.7153 27.3328 37.2284 27.6928 37.4863C28.2647 37.8957 29.2494 37.9209 30.2181 37.5515C30.3825 37.4887 30.5252 37.4453 30.5352 37.4552C30.5705 37.4893 30.0826 37.8086 29.7385 37.9767C29.2755 38.2029 28.9073 38.2904 28.418 38.2904C27.5308 38.2904 26.7943 37.8491 26.1796 36.9491C26.0587 36.7719 25.7868 36.2415 25.5755 35.7701C24.9266 34.3227 24.6061 33.8818 23.8527 33.3992C23.1969 32.9794 22.3513 32.9041 21.7151 33.2091C20.8795 33.6099 20.6463 34.6542 21.2448 35.316C21.4827 35.5791 21.9263 35.8058 22.289 35.85C22.9676 35.9327 23.5508 35.4278 23.5508 34.7577C23.5508 34.3227 23.3798 34.0744 22.9494 33.8844C22.3615 33.6249 21.7296 33.9284 21.7326 34.4684C21.7339 34.6987 21.8364 34.8432 22.0725 34.9478C22.224 35.0148 22.2275 35.02 22.104 34.9949C21.5646 34.8856 21.4382 34.2496 21.8719 33.8274C22.3926 33.3207 23.4694 33.5443 23.8391 34.2362C23.9945 34.5268 24.0125 35.1055 23.8771 35.4549C23.574 36.2371 22.6902 36.6483 21.7936 36.4245C21.1832 36.272 20.9347 36.1071 20.1987 35.3658C18.9199 34.0775 18.4235 33.8278 16.5798 33.5465L16.2266 33.4925L16.6286 33.1606Z" fill="url(#paint7_linear_2715:55824)"/>
<path fill-rule="evenodd" clip-rule="evenodd" d="M10.6289 10.1038C14.8996 15.1728 17.841 17.2641 18.1679 17.706C18.4378 18.0708 18.3362 18.3988 17.8738 18.6559C17.6167 18.7988 17.0881 18.9436 16.8234 18.9436C16.5241 18.9436 16.4213 18.8307 16.4213 18.8307C16.2477 18.6697 16.15 18.6978 15.2587 17.1506C14.0212 15.2728 12.9856 13.7151 12.9574 13.689C12.892 13.6287 12.8932 13.6307 15.1325 17.5491C15.4943 18.3658 15.2044 18.6655 15.2044 18.7819C15.2044 19.0185 15.1384 19.1428 14.84 19.4684C14.3424 20.0113 14.12 20.6212 13.9594 21.8836C13.7794 23.2986 13.2732 24.2982 11.8705 26.009C11.0495 27.0104 10.9151 27.194 10.7079 27.5976C10.4469 28.1059 10.3752 28.3906 10.3461 29.0323C10.3154 29.711 10.3752 30.1495 10.5872 30.7983C10.7728 31.3664 10.9666 31.7414 11.4619 32.4915C11.8893 33.1389 12.1354 33.6201 12.1354 33.8084C12.1354 33.9581 12.1646 33.9583 12.827 33.812C14.412 33.462 15.6991 32.8463 16.4229 32.0918C16.8709 31.6248 16.9761 31.367 16.9795 30.7272C16.9817 30.3086 16.9667 30.2209 16.851 29.9801C16.6626 29.5882 16.3198 29.2623 15.5641 28.7572C14.574 28.0953 14.1511 27.5624 14.0343 26.8295C13.9384 26.2282 14.0496 25.8039 14.5974 24.6812C15.1643 23.5192 15.3048 23.024 15.3998 21.8526C15.4612 21.0959 15.5462 20.7974 15.7686 20.5579C16.0005 20.3081 16.2092 20.2235 16.7831 20.1468C17.7186 20.0218 18.3144 19.7851 18.8041 19.3438C19.2288 18.961 19.4066 18.5921 19.4339 18.0369L19.4546 17.616L19.2172 17.3453C18.3575 16.3651 10.0532 9.33325 10.0003 9.33325C9.98903 9.33325 10.2719 9.68002 10.6289 10.1038ZM12.618 29.8003C12.8124 29.4636 12.7091 29.0309 12.384 28.8194C12.0768 28.6198 11.5995 28.7139 11.5995 28.9741C11.5995 29.0536 11.6445 29.1114 11.7457 29.1624C11.9161 29.2481 11.9285 29.3446 11.7944 29.5417C11.6586 29.7413 11.6695 29.9169 11.8253 30.0361C12.0764 30.2284 12.4318 30.1226 12.618 29.8003Z" fill="url(#paint8_linear_2715:55824)"/>
<path fill-rule="evenodd" clip-rule="evenodd" d="M20.0466 20.3675C19.6074 20.4994 19.1804 20.9547 19.0482 21.432C18.9676 21.7232 19.0134 22.234 19.1341 22.3917C19.3292 22.6465 19.5179 22.7137 20.0288 22.7101C21.029 22.7033 21.8985 22.2838 21.9996 21.7594C22.0825 21.3295 21.7006 20.7337 21.1745 20.4721C20.9031 20.3372 20.3258 20.2837 20.0466 20.3675ZM21.2158 21.2617C21.3701 21.0473 21.3026 20.8157 21.0402 20.659C20.5407 20.3607 19.7852 20.6076 19.7852 21.0691C19.7852 21.2988 20.1792 21.5495 20.5403 21.5495C20.7806 21.5495 21.1096 21.4093 21.2158 21.2617Z" fill="url(#paint9_linear_2715:55824)"/>
<defs>
<linearGradient id="paint0_linear_2715:55824" x1="-0.159709" y1="24.0411" x2="47.8861" y2="24.0411" gradientUnits="userSpaceOnUse">
<stop stop-color="#FFBFC7"/>
<stop offset="0.4544" stop-color="#FF3747"/>
<stop offset="1" stop-color="#660000"/>
</linearGradient>
<linearGradient id="paint1_linear_2715:55824" x1="18.0795" y1="16.1547" x2="35.2871" y2="16.1547" gradientUnits="userSpaceOnUse">
<stop stop-color="#FFBFC7"/>
<stop offset="0.4544" stop-color="#FF3747"/>
<stop offset="1" stop-color="#660000"/>
</linearGradient>
<linearGradient id="paint2_linear_2715:55824" x1="29.627" y1="15.1247" x2="34.8912" y2="15.1247" gradientUnits="userSpaceOnUse">
<stop stop-color="#FFBFC7"/>
<stop offset="0.4544" stop-color="#FF3747"/>
<stop offset="1" stop-color="#660000"/>
</linearGradient>
<linearGradient id="paint3_linear_2715:55824" x1="18.0301" y1="15.0297" x2="21.9103" y2="15.0297" gradientUnits="userSpaceOnUse">
<stop stop-color="#FFBFC7"/>
<stop offset="0.4544" stop-color="#FF3747"/>
<stop offset="1" stop-color="#660000"/>
</linearGradient>
<linearGradient id="paint4_linear_2715:55824" x1="26.2253" y1="23.6862" x2="37.1957" y2="23.6862" gradientUnits="userSpaceOnUse">
<stop stop-color="#FFBFC7"/>
<stop offset="0.4544" stop-color="#FF3747"/>
<stop offset="1" stop-color="#660000"/>
</linearGradient>
<linearGradient id="paint5_linear_2715:55824" x1="20.8393" y1="26.872" x2="29.2335" y2="26.872" gradientUnits="userSpaceOnUse">
<stop stop-color="#FFBFC7"/>
<stop offset="0.4544" stop-color="#FF3747"/>
<stop offset="1" stop-color="#660000"/>
</linearGradient>
<linearGradient id="paint6_linear_2715:55824" x1="29.8073" y1="30.1911" x2="36.0854" y2="30.1911" gradientUnits="userSpaceOnUse">
<stop stop-color="#FFBFC7"/>
<stop offset="0.4544" stop-color="#FF3747"/>
<stop offset="1" stop-color="#660000"/>
</linearGradient>
<linearGradient id="paint7_linear_2715:55824" x1="16.1789" y1="34.6277" x2="30.503" y2="34.6277" gradientUnits="userSpaceOnUse">
<stop stop-color="#FFBFC7"/>
<stop offset="0.4544" stop-color="#FF3747"/>
<stop offset="1" stop-color="#660000"/>
</linearGradient>
<linearGradient id="paint8_linear_2715:55824" x1="9.96854" y1="21.6483" x2="19.4322" y2="21.6483" gradientUnits="userSpaceOnUse">
<stop stop-color="#FFBFC7"/>
<stop offset="0.4544" stop-color="#FF3747"/>
<stop offset="1" stop-color="#660000"/>
</linearGradient>
<linearGradient id="paint9_linear_2715:55824" x1="18.9978" y1="21.5209" x2="22.0038" y2="21.5209" gradientUnits="userSpaceOnUse">
<stop stop-color="#FFBFC7"/>
<stop offset="0.4544" stop-color="#FF3747"/>
<stop offset="1" stop-color="#660000"/>
</linearGradient>
</defs>
</svg>
