<svg width="48" height="48" viewBox="0 0 48 48" fill="none" xmlns="http://www.w3.org/2000/svg">
<circle cx="24" cy="24" r="24" fill="url(#paint0_linear_2715:55839)"/>
<circle cx="23.9974" cy="24.0001" r="21.3333" fill="black"/>
<path d="M17.0499 14.2922L36.0632 27.2745L31.361 34.2256L12.3477 21.1411L17.0499 14.2922Z" fill="url(#paint1_linear_2715:55839)"/>
<path d="M36.0622 27.2744C34.4266 29.6255 28.9066 28.7055 23.6933 25.0255C18.3777 21.4477 15.5155 16.6433 17.0488 14.2922C18.6844 11.9411 24.2044 12.8611 29.4177 16.5411C34.7333 20.0166 37.5955 24.9233 36.0622 27.2744Z" fill="url(#paint2_linear_2715:55839)"/>
<path d="M31.3615 34.1233C29.7259 36.4744 24.2059 35.5544 18.9926 31.8744C13.7792 28.1944 10.8148 23.4922 12.4504 21.0389C14.0859 18.6878 19.6059 19.6078 24.8192 23.2878C30.0326 26.9678 32.8948 31.7722 31.3615 34.1233Z" fill="url(#paint3_linear_2715:55839)"/>
<path d="M36.0622 27.2745L31.36 34.2256C29.7245 36.5767 24.2045 35.5545 18.9911 31.9767C17.9689 31.2611 17.0489 30.5456 16.1289 29.7278C16.8445 29.6256 17.7645 29.2167 18.6845 28.1945C20.32 26.4567 21.1378 26.0478 21.8534 26.15C22.5689 26.15 23.3867 26.8656 24.7156 28.6034C26.0445 30.3411 27.8845 30.8522 29.0089 29.9322C29.1111 29.83 29.2134 29.83 29.3156 29.7278C30.2356 29.0122 30.5422 28.7056 32.28 25.4345C32.6889 24.6167 34.12 23.2878 36.0622 23.9011C36.5734 25.23 36.5734 26.3545 36.0622 27.2745Z" fill="#383844"/>
<path fill-rule="evenodd" clip-rule="evenodd" d="M35.3496 26.8656C33.9185 28.91 28.9096 27.8878 24.1052 24.5144C19.1985 21.1411 16.3363 16.8478 17.7674 14.8033C19.1985 12.7589 24.2074 13.7811 29.0118 17.1544C33.8163 20.5278 36.6785 24.8211 35.3496 26.8656ZM30.8518 23.7989C30.1363 24.8211 27.6829 24.31 25.2296 22.6744C22.8785 21.0389 21.4474 18.8922 22.1629 17.87C22.8785 16.8478 25.3318 17.3589 27.7852 18.9944C30.1363 20.63 31.5674 22.7767 30.8518 23.7989Z" fill="white"/>
<path d="M16.6433 16.6433C16.6433 16.5411 16.541 16.4389 16.4388 16.5411C16.3366 16.6433 16.2344 16.6433 16.2344 16.7456C16.3366 17.0522 16.4388 17.2567 16.4388 17.4611C16.4388 17.5633 16.541 17.6656 16.6433 17.5633C16.7455 17.5633 16.8477 17.4611 16.7455 17.3589C16.7455 17.1545 16.7455 16.95 16.6433 16.6433Z" fill="white"/>
<path d="M17.1543 18.2788C17.1543 18.1766 17.0521 18.0744 16.9499 18.1766C16.8477 18.2788 16.8477 18.2788 16.8477 18.3811C17.9721 20.9366 20.3232 23.6966 23.3899 25.7411C23.4921 25.8433 23.5943 25.7411 23.6965 25.7411C23.7988 25.6388 23.6965 25.5366 23.6965 25.4344C20.5277 23.39 18.2788 20.7322 17.1543 18.2788Z" fill="white"/>
<path d="M29.5209 28.2966C29.4186 28.2966 29.3164 28.2966 29.3164 28.3989C29.3164 28.5011 29.3164 28.6033 29.4186 28.6033C29.7253 28.7055 30.1342 28.8077 30.4409 28.91C30.5431 28.91 30.6453 28.91 30.6453 28.8077C30.6453 28.7055 30.6453 28.6033 30.5431 28.6033C30.2364 28.5011 29.8275 28.3989 29.5209 28.2966Z" fill="white"/>
<path d="M31.3607 28.7056C31.2585 28.7056 31.1562 28.8078 31.1562 28.91C31.1562 29.0122 31.2585 29.1145 31.3607 29.1145C32.1785 29.2167 33.0985 29.3189 33.814 29.2167C33.9162 29.2167 34.0185 29.1145 34.0185 29.0122C34.0185 28.91 33.9162 28.8078 33.814 28.8078C32.9962 28.91 32.1785 28.8078 31.3607 28.7056Z" fill="white"/>
<defs>
<linearGradient id="paint0_linear_2715:55839" x1="-0.159709" y1="24.0411" x2="47.8861" y2="24.0411" gradientUnits="userSpaceOnUse">
<stop stop-color="#FFBFC7"/>
<stop offset="0.4544" stop-color="#FF3747"/>
<stop offset="1" stop-color="#660000"/>
</linearGradient>
<linearGradient id="paint1_linear_2715:55839" x1="12.2687" y1="24.276" x2="36.0069" y2="24.276" gradientUnits="userSpaceOnUse">
<stop stop-color="#FFBFC7"/>
<stop offset="0.4544" stop-color="#FF3747"/>
<stop offset="1" stop-color="#660000"/>
</linearGradient>
<linearGradient id="paint2_linear_2715:55839" x1="16.5707" y1="20.7966" x2="36.4272" y2="20.7966" gradientUnits="userSpaceOnUse">
<stop stop-color="#FFBFC7"/>
<stop offset="0.4544" stop-color="#FF3747"/>
<stop offset="1" stop-color="#660000"/>
</linearGradient>
<linearGradient id="paint3_linear_2715:55839" x1="11.9342" y1="27.5945" x2="31.7273" y2="27.5945" gradientUnits="userSpaceOnUse">
<stop stop-color="#FFBFC7"/>
<stop offset="0.4544" stop-color="#FF3747"/>
<stop offset="1" stop-color="#660000"/>
</linearGradient>
</defs>
</svg>
