<svg width="64" height="64" viewBox="0 0 64 64" fill="none" xmlns="http://www.w3.org/2000/svg">
<path d="M27 54L21.274 54.028C17.8858 54.0449 14.5643 53.0864 11.706 51.267L11.563 51.177C9.47753 49.8532 7.68301 48.1193 6.28849 46.0804C4.89397 44.0416 3.92858 41.7405 3.451 39.317C2.727 35.635 2 32 2 32L3.6 34.881C4.63066 36.7354 6.13835 38.2806 7.96691 39.3564C9.79548 40.4323 11.8784 40.9997 14 41C9.45342 35.8037 6.69079 29.2877 6.117 22.407L6 21L7.648 23.637C8.60345 25.1656 10.0452 26.3283 11.7415 26.9383C13.4378 27.5483 15.2899 27.57 17 27L15.245 24.465C13.212 21.5285 12.2741 17.9716 12.5948 14.4144C12.9156 10.8573 14.4745 7.52552 17 5L17.219 6.972C17.4425 8.98337 18.3282 10.8634 19.7366 12.3166C21.1451 13.7698 22.9966 14.7137 25 15C24.9998 12.415 25.8498 9.90173 27.4188 7.84745C28.9879 5.79316 31.189 4.31192 33.683 3.632L36 3C34.9034 4.91904 34.5582 7.17686 35.0313 9.33591C35.5045 11.495 36.7623 13.4015 38.561 14.686L39 15C39.2835 12.7332 40.3335 10.6315 41.9758 9.04362C43.6181 7.45571 45.754 6.47704 48.029 6.27L51 6L49 8C47.6741 9.3262 46.9293 11.1247 46.9293 13C46.9293 14.8753 47.6741 16.6738 49 18C50.436 18.2871 51.9266 18.094 53.2422 17.4505C54.5577 16.8071 55.6251 15.7489 56.28 14.439L57 13C57.6238 16.7433 57.3959 20.5791 56.3332 24.2222C55.2706 27.8653 53.4005 31.2221 50.862 34.043L50 35C51.6417 35.8208 53.5305 36.0001 55.2974 35.5029C57.0643 35.0057 58.5823 33.8676 59.555 32.311L61 30L59.958 37.3C59.339 41.6318 57.2183 45.6085 53.966 48.536C50.7537 51.4224 46.6402 53.1059 42.326 53.3L27 54Z" fill="#2E2626"/>
<path d="M22 61V31H45V41.69C45.0003 42.7393 44.7938 43.7784 44.3923 44.7479C43.9908 45.7174 43.4021 46.5982 42.66 47.34L42 48V61H22Z" fill="url(#paint0_linear)"/>
<path d="M41 25C41 23.3431 39.6569 22 38 22C36.3431 22 35 23.3431 35 25V32C35 33.6569 36.3431 35 38 35C39.6569 35 41 33.6569 41 32V25Z" fill="url(#paint1_linear)"/>
<path d="M47 28C47 26.3431 45.6569 25 44 25C42.3431 25 41 26.3431 41 28V33C41 34.6569 42.3431 36 44 36C45.6569 36 47 34.6569 47 33V28Z" fill="url(#paint2_linear)"/>
<path d="M35 23C35 21.3431 33.6569 20 32 20C30.3431 20 29 21.3431 29 23V32C29 33.6569 30.3431 35 32 35C33.6569 35 35 33.6569 35 32V23Z" fill="url(#paint3_linear)"/>
<path d="M29 25C29 23.3431 27.6569 22 26 22C24.3431 22 23 23.3431 23 25V32C23 33.6569 24.3431 35 26 35C27.6569 35 29 33.6569 29 32V25Z" fill="url(#paint4_linear)"/>
<path d="M40.87 32.87C40.6607 33.5577 40.2114 34.1473 39.604 34.5317C38.9965 34.916 38.2713 35.0694 37.5602 34.964C36.8491 34.8587 36.1996 34.5015 35.7297 33.9575C35.2598 33.4135 35.0009 32.7188 35 32V25C34.9974 24.3557 35.2034 23.7279 35.5874 23.2105C35.9714 22.6932 36.5126 22.3141 37.13 22.13C37.0456 22.4124 37.0018 22.7053 37 23V30C37 30.394 37.0776 30.7841 37.2284 31.1481C37.3792 31.512 37.6001 31.8427 37.8787 32.1213C38.1573 32.3999 38.488 32.6209 38.852 32.7716C39.216 32.9224 39.6061 33 40 33C40.2947 32.9982 40.5877 32.9545 40.87 32.87Z" fill="url(#paint5_linear)"/>
<path d="M46.87 33.87C46.6607 34.5577 46.2114 35.1473 45.604 35.5317C44.9965 35.916 44.2713 36.0694 43.5602 35.964C42.8491 35.8587 42.1996 35.5015 41.7297 34.9575C41.2598 34.4135 41.0009 33.7188 41 33V28C40.9974 27.3557 41.2034 26.7279 41.5874 26.2105C41.9714 25.6932 42.5126 25.3141 43.13 25.13C43.0456 25.4124 43.0018 25.7053 43 26V31C43 31.7957 43.3161 32.5587 43.8787 33.1213C44.4413 33.6839 45.2044 34 46 34C46.2947 33.9982 46.5877 33.9545 46.87 33.87Z" fill="url(#paint6_linear)"/>
<path d="M35 28.8199V31.9999C35 32.7956 34.684 33.5586 34.1213 34.1213C33.5587 34.6839 32.7957 34.9999 32 34.9999C31.2044 34.9999 30.4413 34.6839 29.8787 34.1213C29.3161 33.5586 29 32.7956 29 31.9999V22.9999C28.9971 22.3799 29.1883 21.7744 29.5471 21.2687C29.9058 20.7629 30.4139 20.3822 31 20.1799V25.9999C31 26.7956 31.3161 27.5586 31.8787 28.1213C32.4413 28.6839 33.2044 28.9999 34 28.9999C34.3416 29.0021 34.6806 28.941 35 28.8199Z" fill="url(#paint7_linear)"/>
<path d="M29 28.8199V31.9999C29 32.7956 28.684 33.5586 28.1214 34.1213C27.5587 34.6839 26.7957 34.9999 26 34.9999C25.2044 34.9999 24.4413 34.6839 23.8787 34.1213C23.3161 33.5586 23 32.7956 23 31.9999V24.9999C22.9971 24.3799 23.1883 23.7744 23.5471 23.2687C23.9058 22.7629 24.4139 22.3822 25 22.1799V25.9999C25 26.7956 25.3161 27.5586 25.8787 28.1213C26.4413 28.6839 27.2044 28.9999 28 28.9999C28.3416 29.0021 28.6806 28.941 29 28.8199Z" fill="url(#paint8_linear)"/>
<path d="M23.429 36.429C25.1338 36.429 26.7688 37.1062 27.9743 38.3117C29.1798 39.5172 29.857 41.1522 29.857 42.857C29.857 44.221 29.3152 45.5291 28.3507 46.4936C27.3862 47.4581 26.078 48 24.714 48H22.143L17.814 39.343C17.2787 38.2717 17.0001 37.0906 17 35.893C17.0001 35.0009 17.1918 34.1193 17.5622 33.3078C17.9326 32.4963 18.4731 31.7738 19.147 31.1893C19.8209 30.6048 20.6125 30.172 21.4683 29.92C22.324 29.6681 23.2239 29.6029 24.107 29.729L35 31.286C34.9997 32.6499 34.4578 33.9579 33.4934 34.9224C32.5289 35.8868 31.2209 36.4287 29.857 36.429H23.429Z" fill="url(#paint9_linear)"/>
<path d="M34.9997 31.2859C34.9995 32.6498 34.4575 33.9578 33.4931 34.9222C32.5286 35.8867 31.2206 36.4286 29.8567 36.4289H23.4287L25.6357 36.0119C29.1402 35.3508 32.3863 33.7125 34.9997 31.2859Z" fill="url(#paint10_linear)"/>
<path d="M29.72 44.02C29.5058 44.9591 29.031 45.8187 28.35 46.5C27.3818 47.4602 26.0736 47.9993 24.71 48H22.14L17.81 39.34C17.278 38.2677 17.0008 37.087 17 35.89C16.9982 34.974 17.2 34.069 17.5909 33.2406C17.9817 32.4122 18.5519 31.681 19.26 31.1C19.087 31.6809 18.9994 32.2839 19 32.89C19.0008 34.087 19.278 35.2677 19.81 36.34L22.99 42.7C23.3371 43.3923 23.8704 43.9741 24.53 44.38C25.184 44.7874 25.9395 45.0023 26.71 45C27.7923 45.0033 28.8471 44.6598 29.72 44.02Z" fill="url(#paint11_linear)"/>
<path d="M61.3433 29.0612C61.128 28.9825 60.8921 28.9802 60.6753 29.0547C60.4585 29.1291 60.2739 29.2758 60.1523 29.4702L58.7073 31.7822C57.9939 32.9334 56.9309 33.8261 55.6737 34.3299C54.4166 34.8337 53.0313 34.9221 51.7203 34.5822C54.3294 31.6594 56.2473 28.187 57.332 24.4223C58.4167 20.6576 58.6403 16.6971 57.9863 12.8342C57.9515 12.6259 57.8517 12.434 57.7011 12.2859C57.5506 12.1379 57.357 12.0413 57.1482 12.01C56.9394 11.9787 56.726 12.0142 56.5387 12.1116C56.3513 12.2091 56.1996 12.3633 56.1053 12.5522L55.3863 13.9912C54.8516 15.0574 53.9952 15.9285 52.9381 16.481C51.881 17.0336 50.677 17.2397 49.4963 17.0702C48.4523 15.9149 47.8921 14.4026 47.9313 12.846C47.9706 11.2894 48.6064 9.80736 49.7073 8.70617L51.7073 6.70617C51.8517 6.56053 51.9478 6.37402 51.9826 6.17191C52.0174 5.96981 51.9893 5.76189 51.902 5.57632C51.8146 5.39076 51.6724 5.23654 51.4944 5.13455C51.3165 5.03256 51.1115 4.98774 50.9073 5.00617L47.9363 5.27617C45.7252 5.48862 43.6287 6.35995 41.9184 7.77735C40.2081 9.19475 38.9626 11.0929 38.3433 13.2262C37.0339 12.0107 36.1751 10.3872 35.9072 8.62076C35.6393 6.85433 35.9781 5.04925 36.8683 3.50017C36.9664 3.32847 37.0114 3.13154 36.9976 2.93428C36.9838 2.73701 36.9119 2.54826 36.7908 2.39189C36.6698 2.23552 36.5051 2.11855 36.3175 2.05577C36.13 1.99298 35.9281 1.98721 35.7373 2.03917L33.4193 2.67117C30.9178 3.35861 28.6837 4.78899 27.0125 6.77323C25.3412 8.75748 24.3115 11.2022 24.0593 13.7842C22.5084 13.3413 21.1243 12.447 20.0832 11.215C19.0422 9.98309 18.3913 8.46923 18.2133 6.86617L17.9943 4.89017C17.9739 4.70287 17.901 4.52516 17.784 4.37749C17.667 4.22982 17.5107 4.11821 17.333 4.0555C17.1553 3.9928 16.9636 3.98156 16.7798 4.02308C16.5961 4.06459 16.4278 4.15718 16.2943 4.29017C13.6018 6.98037 11.9395 10.5307 11.5978 14.3215C11.256 18.1123 12.2564 21.9027 14.4243 25.0312L15.3413 26.3562C14.0096 26.5268 12.6569 26.3113 11.4441 25.7353C10.2314 25.1594 9.20957 24.2471 8.50031 23.1072L6.84831 20.4702C6.73027 20.2781 6.55078 20.1315 6.33897 20.0542C6.12716 19.977 5.89545 19.9736 5.68145 20.0445C5.46746 20.1155 5.28373 20.2567 5.16008 20.4453C5.03644 20.6338 4.98013 20.8586 5.00031 21.0832L5.11831 22.4902C5.62557 28.7537 7.90889 34.7427 11.7003 39.7542C10.1845 39.427 8.75587 38.7802 7.50994 37.857C6.26402 36.9337 5.22944 35.7552 4.47531 34.4002L2.87531 31.5192C2.75957 31.3107 2.57312 31.1504 2.34961 31.0672C2.12609 30.9841 1.88022 30.9836 1.65635 31.0658C1.43248 31.1479 1.24536 31.3074 1.12873 31.5154C1.0121 31.7235 0.973646 31.9663 1.02031 32.2002C1.02031 32.2002 1.74631 35.8342 2.46931 39.5142C2.97875 42.0689 3.99961 44.4942 5.47048 46.6442C6.94135 48.7942 8.83185 50.6246 11.0283 52.0252L11.1683 52.1152C14.1282 53.999 17.5599 55.0087 21.0683 55.0282L21.0003 60.9892C20.9988 61.1205 21.0233 61.2508 21.0722 61.3727C21.1211 61.4946 21.1936 61.6056 21.2854 61.6995C21.3772 61.7934 21.4867 61.8683 21.6074 61.9198C21.7282 61.9714 21.858 61.9987 21.9893 62.0002H22.0003C22.2636 62.0002 22.5163 61.8963 22.7035 61.7112C22.8908 61.526 22.9974 61.2745 23.0003 61.0112L23.1433 48.0112C23.1448 47.8524 23.1089 47.6954 23.0383 47.5532L18.7093 38.9002C18.2446 37.9683 18.0019 36.9415 18.0003 35.9002C18.0004 35.1514 18.1613 34.4115 18.4722 33.7303C18.7831 33.0492 19.2367 32.4428 19.8023 31.9522C20.3679 31.4616 21.0323 31.0983 21.7506 30.8867C22.4688 30.6752 23.2241 30.6205 23.9653 30.7262L33.9113 32.1472C33.7143 33.0767 33.2043 33.9105 32.4664 34.5092C31.7285 35.1078 30.8075 35.435 29.8573 35.4362H23.4293C23.1641 35.4362 22.9097 35.5415 22.7222 35.7291C22.5347 35.9166 22.4293 36.171 22.4293 36.4362C22.4293 36.7014 22.5347 36.9557 22.7222 37.1433C22.9097 37.3308 23.1641 37.4362 23.4293 37.4362C24.8684 37.4378 26.2481 38.0101 27.2657 39.0277C28.2833 40.0453 28.8557 41.4251 28.8573 42.8642V48.0002C28.8573 48.2654 28.9627 48.5197 29.1502 48.7073C29.3377 48.8948 29.5921 49.0002 29.8573 49.0002C30.1225 49.0002 30.3769 48.8948 30.5644 48.7073C30.7519 48.5197 30.8573 48.2654 30.8573 48.0002V42.8572C30.8583 41.839 30.6495 40.8316 30.244 39.8977C29.8385 38.9639 29.2449 38.1235 28.5003 37.4292H29.8623C30.8859 37.4287 31.8932 37.1722 32.7925 36.6832C33.6917 36.1942 34.4545 35.4881 35.0113 34.6292C35.3489 35.0234 35.7613 35.347 36.2245 35.5811C36.6878 35.8153 37.1928 35.9555 37.7104 35.9936C38.2281 36.0317 38.7482 35.967 39.2407 35.8032C39.7333 35.6394 40.1886 35.3797 40.5803 35.0392C40.9316 35.6344 41.4315 36.128 42.031 36.4718C42.6306 36.8156 43.3092 36.9977 44.0003 37.0002V41.6902C44.0028 42.6085 43.8232 43.5182 43.4719 44.3667C43.1205 45.2152 42.6044 45.9855 41.9533 46.6332L41.2933 47.2932C41.1057 47.4807 41.0004 47.735 41.0003 48.0002V61.0002C41.0003 61.2654 41.1057 61.5197 41.2932 61.7073C41.4807 61.8948 41.7351 62.0002 42.0003 62.0002C42.2655 62.0002 42.5199 61.8948 42.7074 61.7073C42.8949 61.5197 43.0003 61.2654 43.0003 61.0002V54.2462C47.4593 53.9083 51.6693 52.0578 54.9332 49.001C58.1971 45.9442 60.3192 41.8645 60.9483 37.4372L61.9903 30.1422C62.0228 29.9151 61.9762 29.6838 61.8584 29.487C61.7406 29.2902 61.5588 29.1398 61.3433 29.0612ZM24.0003 28.7182V25.0002C24.0003 24.4697 24.211 23.961 24.5861 23.586C24.9612 23.2109 25.4699 23.0002 26.0003 23.0002C26.5307 23.0002 27.0394 23.2109 27.4145 23.586C27.7896 23.961 28.0003 24.4697 28.0003 25.0002V29.2762L24.2493 28.7402C24.1663 28.7282 24.0833 28.7272 24.0003 28.7182ZM30.0003 29.5612V23.0002C30.0003 22.4697 30.211 21.961 30.5861 21.586C30.9612 21.2109 31.4699 21.0002 32.0003 21.0002C32.5307 21.0002 33.0394 21.2109 33.4145 21.586C33.7896 21.961 34.0003 22.4697 34.0003 23.0002V30.1332L30.0003 29.5612ZM38.0003 34.0002C37.4699 34.0002 36.9612 33.7895 36.5861 33.4144C36.211 33.0393 36.0003 32.5306 36.0003 32.0002V25.0002C36.0003 24.4697 36.211 23.961 36.5861 23.586C36.9612 23.2109 37.4699 23.0002 38.0003 23.0002C38.5307 23.0002 39.0394 23.2109 39.4145 23.586C39.7896 23.961 40.0003 24.4697 40.0003 25.0002V32.0002C40.0003 32.5306 39.7896 33.0393 39.4145 33.4144C39.0394 33.7895 38.5307 34.0002 38.0003 34.0002ZM42.0003 33.0002V28.0002C42.0003 27.4697 42.211 26.961 42.5861 26.586C42.9612 26.2109 43.4699 26.0002 44.0003 26.0002C44.5307 26.0002 45.0394 26.2109 45.4145 26.586C45.7896 26.961 46.0003 27.4697 46.0003 28.0002V33.0002C46.0003 33.5306 45.7896 34.0393 45.4145 34.4144C45.0394 34.7895 44.5307 35.0002 44.0003 35.0002C43.4699 35.0002 42.9612 34.7895 42.5861 34.4144C42.211 34.0393 42.0003 33.5306 42.0003 33.0002ZM58.9683 37.1542C58.4074 41.105 56.5225 44.7485 53.6219 47.4889C50.7212 50.2294 46.9766 51.9044 43.0003 52.2402V48.4142L43.3673 48.0472C44.2048 47.2143 44.8687 46.2236 45.3206 45.1324C45.7726 44.0413 46.0036 42.8712 46.0003 41.6902V36.4442C46.6063 36.0958 47.1101 35.5942 47.4611 34.9898C47.8121 34.3853 47.9981 33.6992 48.0003 33.0002V28.0002C48.0003 26.9393 47.5789 25.9219 46.8287 25.1717C46.0786 24.4216 45.0612 24.0002 44.0003 24.0002C43.2792 24.0037 42.5727 24.2042 41.9573 24.5802C41.8886 23.8936 41.6426 23.2367 41.2433 22.6739C40.8441 22.1112 40.3054 21.6619 39.6801 21.3702C39.0548 21.0786 38.3644 20.9545 37.6766 21.0102C36.9889 21.066 36.3275 21.2996 35.7573 21.6882C35.4869 20.9046 34.9792 20.2248 34.3046 19.7432C33.63 19.2616 32.8221 19.0021 31.9932 19.0009C31.1643 18.9997 30.3557 19.2568 29.6797 19.7364C29.0037 20.2161 28.4939 20.8944 28.2213 21.6772C27.6192 21.2752 26.9194 21.0442 26.1964 21.0087C25.4733 20.9732 24.7542 21.1346 24.1157 21.4757C23.4772 21.8168 22.9432 22.3247 22.5706 22.9454C22.1981 23.5661 22.001 24.2763 22.0003 25.0002V28.7752C20.3211 29.0628 18.7977 29.9352 17.6997 31.2378C16.6016 32.5405 15.9997 34.1895 16.0003 35.8932C16.0016 37.2468 16.3165 38.5817 16.9203 39.7932L21.1413 48.2332L21.0883 53.0242C17.9537 53.005 14.8878 52.104 12.2413 50.4242L12.1003 50.3352C10.1322 49.0801 8.43833 47.44 7.12056 45.5133C5.80279 43.5867 4.88837 41.4134 4.43231 39.1242C4.31431 38.5242 4.19631 37.9242 4.08231 37.3462C5.29262 38.8022 6.80862 39.974 8.5227 40.7784C10.2368 41.5827 12.1069 41.9998 14.0003 42.0002C14.1925 42.0001 14.3805 41.9447 14.542 41.8406C14.7035 41.7365 14.8316 41.588 14.911 41.413C14.9903 41.238 15.0175 41.0438 14.9894 40.8537C14.9612 40.6637 14.8789 40.4857 14.7523 40.3412C10.9632 36.0311 8.44197 30.7558 7.46831 25.1002C8.62562 26.5198 10.1882 27.5529 11.9477 28.0617C13.7071 28.5705 15.5799 28.5309 17.3163 27.9482C17.4636 27.8991 17.5974 27.8164 17.7072 27.7066C17.817 27.5968 17.8997 27.463 17.9488 27.3157C17.9979 27.1684 18.0121 27.0117 17.9901 26.858C17.9681 26.7043 17.9107 26.5578 17.8223 26.4302L16.0673 23.9002C14.3838 21.4694 13.4986 18.5749 13.5344 15.6183C13.5703 12.6616 14.5254 9.78945 16.2673 7.40017C16.5756 9.57064 17.58 11.5824 19.1296 13.1332C20.6791 14.684 22.6901 15.6901 24.8603 16.0002C25.0029 16.0203 25.1481 16.0095 25.2861 15.9683C25.4241 15.9272 25.5515 15.8567 25.6598 15.7618C25.768 15.6668 25.8545 15.5496 25.9133 15.4182C25.972 15.2867 26.0017 15.1441 26.0003 15.0002C26.005 12.6362 26.7847 10.3389 28.2199 8.46049C29.6551 6.58204 31.6667 5.22599 33.9463 4.60017L34.2583 4.51417C33.643 6.50393 33.6715 8.63713 34.3396 10.6098C35.0078 12.5824 36.2815 14.2938 37.9793 15.5002L38.4183 15.8132C38.5592 15.9139 38.7238 15.9764 38.8961 15.9944C39.0684 16.0124 39.2424 15.9853 39.4011 15.9159C39.5597 15.8464 39.6977 15.7369 39.8013 15.5982C39.9049 15.4594 39.9708 15.296 39.9923 15.1242C40.257 13.0875 41.2052 11.201 42.6818 9.77346C44.1584 8.34593 46.0758 7.46194 48.1203 7.26617L48.3403 7.24617L48.2933 7.29317C46.7797 8.80677 45.9294 10.8596 45.9294 13.0002C45.9294 15.1407 46.7797 17.1936 48.2933 18.7072C48.4326 18.847 48.6106 18.9421 48.8043 18.9802C50.1915 19.2549 51.6275 19.1422 52.9549 18.6547C54.2822 18.1671 55.4497 17.3234 56.3293 16.2162C56.5872 22.5282 54.3573 28.6893 50.1193 33.3742L49.2573 34.3312C49.1543 34.4459 49.0792 34.5829 49.0379 34.7315C48.9966 34.88 48.9903 35.0362 49.0193 35.1876C49.0484 35.339 49.112 35.4817 49.2054 35.6044C49.2987 35.7272 49.4191 35.8267 49.5573 35.8952C51.1662 36.7067 52.9946 36.9754 54.769 36.661C56.5433 36.3466 58.1682 35.4661 59.4003 34.1512L58.9683 37.1542Z" fill="#DC2C2C"/>
<defs>
<linearGradient id="paint0_linear" x1="33.5" y1="31" x2="33.5" y2="61" gradientUnits="userSpaceOnUse">
<stop/>
<stop offset="1" stop-color="#A8A8A8"/>
</linearGradient>
<linearGradient id="paint1_linear" x1="38" y1="22" x2="38" y2="35" gradientUnits="userSpaceOnUse">
<stop stop-color="#DBDBDB"/>
<stop offset="1" stop-color="#A8A8A8"/>
</linearGradient>
<linearGradient id="paint2_linear" x1="44" y1="25" x2="44" y2="36" gradientUnits="userSpaceOnUse">
<stop stop-color="#DBDBDB"/>
<stop offset="1" stop-color="#A8A8A8"/>
</linearGradient>
<linearGradient id="paint3_linear" x1="32" y1="20" x2="32" y2="35" gradientUnits="userSpaceOnUse">
<stop stop-color="#DBDBDB"/>
<stop offset="1" stop-color="#A8A8A8"/>
</linearGradient>
<linearGradient id="paint4_linear" x1="26" y1="22" x2="26" y2="35" gradientUnits="userSpaceOnUse">
<stop stop-color="#DBDBDB"/>
<stop offset="1" stop-color="#A8A8A8"/>
</linearGradient>
<linearGradient id="paint5_linear" x1="37.935" y1="22.13" x2="37.935" y2="34.9965" gradientUnits="userSpaceOnUse">
<stop/>
<stop offset="1" stop-color="#A8A8A8"/>
</linearGradient>
<linearGradient id="paint6_linear" x1="43.935" y1="25.13" x2="43.935" y2="35.9965" gradientUnits="userSpaceOnUse">
<stop/>
<stop offset="1" stop-color="#A8A8A8"/>
</linearGradient>
<linearGradient id="paint7_linear" x1="32" y1="20.1799" x2="32" y2="34.9999" gradientUnits="userSpaceOnUse">
<stop/>
<stop offset="1" stop-color="#A8A8A8"/>
</linearGradient>
<linearGradient id="paint8_linear" x1="26" y1="22.1799" x2="26" y2="34.9999" gradientUnits="userSpaceOnUse">
<stop/>
<stop offset="1" stop-color="#A8A8A8"/>
</linearGradient>
<linearGradient id="paint9_linear" x1="26" y1="29.6665" x2="26" y2="48" gradientUnits="userSpaceOnUse">
<stop stop-color="#DBDBDB"/>
<stop offset="1" stop-color="#A8A8A8"/>
</linearGradient>
<linearGradient id="paint10_linear" x1="29.2142" y1="31.2859" x2="29.2142" y2="36.4289" gradientUnits="userSpaceOnUse">
<stop/>
<stop offset="1" stop-color="#A8A8A8"/>
</linearGradient>
<linearGradient id="paint11_linear" x1="23.36" y1="31.1" x2="23.36" y2="48" gradientUnits="userSpaceOnUse">
<stop/>
<stop offset="1" stop-color="#A8A8A8"/>
</linearGradient>
</defs>
</svg>
