<svg width="42" height="42" viewBox="0 0 42 42" fill="none" xmlns="http://www.w3.org/2000/svg">
<g clip-path="url(#clip0)">
<path d="M22.3083 20.1461C22.1889 20.2095 22.1143 20.3336 22.1143 20.4687V29.7492C22.9786 29.611 23.8255 29.3442 24.6221 28.9473L24.7142 28.9012C27.7053 27.4106 29.5629 24.4092 29.5629 21.068V21.0161C29.5629 19.5285 29.192 18.1066 28.5169 16.855L22.3083 20.1461Z" fill="url(#paint0_linear)"/>
<path d="M15.4693 31.4189C13.5449 30.4585 11.9298 28.9842 10.7985 27.1552C9.66713 25.3261 9.06913 23.2228 9.06913 21.072V20.9261C9.06913 18.9852 9.557 17.0851 10.4828 15.3887L2.18698 10.83C2.07253 10.7671 1.93262 10.8499 1.93262 10.9804V31.1472C1.93262 32.0391 2.43686 32.8543 3.23492 33.2526L19.0535 41.147C19.1676 41.2039 19.3019 41.1209 19.3019 40.9933V32.5844C18.0095 32.4266 16.7396 32.0529 15.5541 31.4613L15.4693 31.4189Z" fill="#DC2C2C"/>
<path d="M3.86634 8.54452L12.133 13.0871C13.0993 12.0391 14.2539 11.1739 15.547 10.5406C18.7899 8.95269 22.648 8.98048 25.8675 10.6149L26.0453 10.7052C27.3202 11.3524 28.436 12.2106 29.3624 13.2241L37.5715 8.87251C37.6944 8.80734 37.6929 8.63069 37.5688 8.56768L21.7426 0.532965C21.0837 0.198505 20.3061 0.192915 19.6425 0.517872L3.87353 8.23985C3.74862 8.30102 3.74447 8.4776 3.86634 8.54452Z" fill="#DC2C2C"/>
<path d="M19.1124 20.1307L12.9467 16.7426C12.2486 18.0245 11.8809 19.46 11.8809 20.9261V21.072C11.8809 24.4111 13.7369 27.4117 16.7246 28.9027L16.8094 28.9452C17.6011 29.3402 18.4426 29.6067 19.3016 29.7462V20.4507C19.3016 20.3175 19.2291 20.1949 19.1124 20.1307Z" fill="url(#paint1_linear)"/>
<path d="M39.2592 11.1609L31.0032 15.5373C31.8887 17.1866 32.3749 19.0583 32.3749 21.0163V21.0682C32.3749 23.22 31.7764 25.3244 30.6439 27.1542C29.5115 28.9837 27.895 30.4582 25.9691 31.4179L25.8769 31.464C24.6868 32.0571 23.4116 32.4309 22.1143 32.5871V40.9951C22.1143 41.1227 22.2484 41.2057 22.3625 41.1488L38.2079 33.2519C39.0066 32.8539 39.5114 32.0382 39.5114 31.1459V11.3126C39.5114 11.1832 39.3736 11.1003 39.2592 11.1609Z" fill="#DC2C2C"/>
<path d="M24.7727 13.2126L24.5948 13.1224C23.3574 12.4941 21.9949 12.1796 20.6324 12.1796C19.3121 12.1796 17.9919 12.4747 16.7841 13.0663C16.0182 13.4413 15.3168 13.9241 14.6973 14.4962L20.5472 17.7108C20.6551 17.7701 20.7854 17.771 20.8941 17.7135L26.7683 14.5996C26.1806 14.0562 25.5116 13.5878 24.7727 13.2126Z" fill="url(#paint2_linear)"/>
</g>
<defs>
<linearGradient id="paint0_linear" x1="25.8386" y1="16.855" x2="25.8386" y2="29.7492" gradientUnits="userSpaceOnUse">
<stop stop-color="#FFA4A4"/>
<stop offset="1" stop-color="#F1F1F1"/>
</linearGradient>
<linearGradient id="paint1_linear" x1="15.5912" y1="16.7426" x2="15.5912" y2="29.7462" gradientUnits="userSpaceOnUse">
<stop stop-color="#FFA4A4"/>
<stop offset="1" stop-color="#F1F1F1"/>
</linearGradient>
<linearGradient id="paint2_linear" x1="20.7328" y1="12.1796" x2="20.7328" y2="17.756" gradientUnits="userSpaceOnUse">
<stop stop-color="#FFA4A4"/>
<stop offset="1" stop-color="#F1F1F1"/>
</linearGradient>
<clipPath id="clip0">
<rect width="40.8889" height="40.8889" fill="white" transform="translate(0.277344 0.277832)"/>
</clipPath>
</defs>
</svg>
