<svg width="80" height="80" viewBox="0 0 80 80" fill="none" xmlns="http://www.w3.org/2000/svg">
<path d="M78.3337 40.0001L70.867 31.6667L73.2003 20.7667L62.5837 17.3501L59.2503 6.73341L48.3337 9.13341L40.0003 1.66675L31.667 9.13341L20.8337 6.80008L17.417 17.4167L6.80033 20.8334L9.13366 31.6667L1.66699 40.0001L9.13366 48.3334L6.80033 59.1667L17.417 62.5001L20.8337 73.1167L31.667 70.8667L40.0003 78.3334L48.3337 70.8667L59.2337 73.2001L62.567 62.5834L73.1837 59.2501L70.867 48.3334L78.3337 40.0001ZM40.0003 68.3334C34.3965 68.3334 28.9186 66.6717 24.2592 63.5584C19.5998 60.4451 15.9682 56.02 13.8237 50.8428C11.6793 45.6655 11.1182 39.9687 12.2114 34.4725C13.3047 28.9764 16.0031 23.9279 19.9656 19.9654C23.9281 16.0029 28.9766 13.3044 34.4728 12.2112C39.9689 11.1179 45.6658 11.679 50.843 13.8235C56.0203 15.968 60.4453 19.5995 63.5586 24.2589C66.6719 28.9183 68.3337 34.3963 68.3337 40.0001C68.3337 47.5145 65.3486 54.7212 60.035 60.0348C54.7215 65.3483 47.5148 68.3334 40.0003 68.3334Z" fill="url(#paint0_linear)"/>
<path opacity="0.67" d="M40 15C35.0555 15 30.222 16.4662 26.1108 19.2133C21.9995 21.9603 18.7952 25.8648 16.903 30.4329C15.0108 35.0011 14.5157 40.0277 15.4804 44.8773C16.445 49.7268 18.826 54.1814 22.3223 57.6777C25.8187 61.174 30.2732 63.555 35.1228 64.5196C39.9723 65.4843 44.9989 64.9892 49.5671 63.097C54.1353 61.2048 58.0397 58.0005 60.7868 53.8893C63.5338 49.778 65 44.9445 65 40C65 33.3696 62.3661 27.0107 57.6777 22.3223C52.9893 17.6339 46.6304 15 40 15ZM56.5167 36.8333L40.9 52.45C40.1261 53.2264 39.2065 53.8424 38.1941 54.2628C37.1817 54.6832 36.0963 54.8998 35 54.9C30.5333 54.9 28.7333 52.0833 23.4833 46.8333C22.2436 45.5371 21.5602 43.8072 21.5794 42.0137C21.5986 40.2201 22.3189 38.5053 23.5861 37.2359C24.8533 35.9665 26.5669 35.2433 28.3604 35.221C30.1539 35.1988 31.885 35.8791 33.1833 37.1167L35 38.9167L46.8167 27.1167C48.115 25.8791 49.8461 25.1988 51.6396 25.221C53.4331 25.2433 55.1467 25.9665 56.414 27.2359C57.6812 28.5053 58.4014 30.2201 58.4206 32.0137C58.4398 33.8072 57.7564 35.5371 56.5167 36.8333Z" fill="url(#paint1_linear)"/>
<path d="M49.1667 29.4667L35.0001 43.6333L30.8334 39.4667C30.1703 38.8036 29.2711 38.4311 28.3334 38.4311C27.3957 38.4311 26.4964 38.8036 25.8334 39.4667C25.1703 40.1297 24.7979 41.029 24.7979 41.9667C24.7979 42.9044 25.1703 43.8036 25.8334 44.4667L31.4667 50.1C32.4042 51.0363 33.675 51.5623 35.0001 51.5623C36.3251 51.5623 37.5959 51.0363 38.5334 50.1L54.1667 34.4667C54.8298 33.8036 55.2023 32.9044 55.2023 31.9667C55.2023 31.029 54.8298 30.1297 54.1667 29.4667C53.5037 28.8036 52.6044 28.4312 51.6667 28.4312C50.729 28.4312 49.8298 28.8036 49.1667 29.4667Z" fill="url(#paint2_linear)"/>
<defs>
<linearGradient id="paint0_linear" x1="40.0003" y1="1.66675" x2="40.0003" y2="78.3334" gradientUnits="userSpaceOnUse">
<stop stop-color="#FF4C4C"/>
<stop offset="1" stop-color="#FF0000" stop-opacity="0"/>
</linearGradient>
<linearGradient id="paint1_linear" x1="40" y1="15" x2="40" y2="65" gradientUnits="userSpaceOnUse">
<stop stop-color="#FF4C4C"/>
<stop offset="1" stop-color="#FF0000" stop-opacity="0"/>
</linearGradient>
<linearGradient id="paint2_linear" x1="40.0001" y1="28.4312" x2="40.0001" y2="51.5623" gradientUnits="userSpaceOnUse">
<stop stop-color="#393E46"/>
<stop offset="1" stop-color="white"/>
</linearGradient>
</defs>
</svg>
