<svg width="42" height="42" viewBox="0 0 42 42" fill="none" xmlns="http://www.w3.org/2000/svg">
<g clip-path="url(#clip0)">
<path d="M16.7215 11.8556C16.8175 13.2391 18.3983 13.9966 19.5408 13.2106C20.5459 12.5187 21.9179 13.2394 21.9179 14.4605V19.4846H25.6817C25.0133 16.7551 27.1774 14.096 30.0562 14.2948C32.589 14.4703 34.4674 16.9092 33.8349 19.4846H37.6367C40.8178 14.6748 37.6141 7.71603 31.4149 7.3977C32.1159 3.69606 29.2617 0.283997 25.5212 0.283997C24.1701 0.283997 22.9219 0.733135 21.9179 1.48974V8.98814C21.9179 10.2084 20.5469 10.9303 19.5407 10.238C18.3181 9.39695 16.6155 10.3261 16.7215 11.8556Z" fill="url(#paint0_linear)"/>
<path d="M8.9449 19.4846C10.1654 19.4846 10.8871 20.8559 10.1946 21.862C9.35746 23.0785 10.2767 24.7863 11.8126 24.6803C13.1993 24.5841 13.9531 23.0021 13.1681 21.8617C12.476 20.8561 13.1973 19.4846 14.4181 19.4846H19.5229V15.7995C16.9417 16.4336 14.5075 14.5481 14.3322 12.0211C14.1335 9.15453 16.7815 6.976 19.5229 7.64723V1.48978C15.2253 -1.74907 9.06861 1.94914 10.0117 7.31845C3.77557 7.64979 0.619704 14.6237 3.82844 19.4846H8.9449Z" fill="#DC2C2C"/>
<path d="M37.5965 21.8799H32.4959C31.2748 21.8799 30.5538 20.5083 31.246 19.5027C32.0316 18.3618 31.2758 16.7803 29.8905 16.6843C28.3548 16.5776 27.435 18.2855 28.2725 19.5025C28.9647 20.5086 28.2436 21.8799 27.0228 21.8799H21.918V25.563C24.6515 24.8937 27.3079 27.0633 27.1086 29.9368C26.9332 32.4648 24.4984 34.3487 21.918 33.7152V39.9548C26.2156 43.1936 32.3723 39.4954 31.4292 34.1261C37.5154 33.8026 40.8984 26.9745 37.5965 21.8799Z" fill="#DC2C2C"/>
<path d="M24.7196 29.771C24.8255 28.2423 23.1231 27.3123 21.9005 28.1537C20.8948 28.8453 19.5232 28.1252 19.5232 26.9038V21.8799H15.7573C16.4092 24.5328 14.3885 27.0802 11.6765 27.0802C8.93893 27.0802 6.96196 24.5007 7.60413 21.8799H3.82909C0.622106 26.7403 3.77183 33.7256 10.0262 34.0468C9.32529 37.7484 12.1795 41.1605 15.9199 41.1605C17.2711 41.1605 18.5193 40.7113 19.5232 39.9547V32.3763C19.5232 31.1562 20.8943 30.4341 21.9002 31.1263C23.0405 31.9111 24.6234 31.1574 24.7196 29.771Z" fill="url(#paint1_linear)"/>
</g>
<defs>
<linearGradient id="paint0_linear" x1="27.8003" y1="0.283997" x2="27.8003" y2="19.4846" gradientUnits="userSpaceOnUse">
<stop stop-color="#FFA4A4"/>
<stop offset="1" stop-color="#F1F1F1"/>
</linearGradient>
<linearGradient id="paint1_linear" x1="13.641" y1="21.8799" x2="13.641" y2="41.1605" gradientUnits="userSpaceOnUse">
<stop stop-color="#FFA4A4"/>
<stop offset="1" stop-color="#F1F1F1"/>
</linearGradient>
<clipPath id="clip0">
<rect width="40.8889" height="40.8889" fill="white" transform="translate(0.277344 0.277832)"/>
</clipPath>
</defs>
</svg>
