<svg width="80" height="80" viewBox="0 0 80 80" fill="none" xmlns="http://www.w3.org/2000/svg">
<g clip-path="url(#clip0)">
<path d="M26.25 35.6252C25.7527 35.6252 25.2758 35.8228 24.9242 36.1744C24.5725 36.5261 24.375 37.003 24.375 37.5002V38.7582C22.6655 38.8425 21.0566 39.5913 19.8913 40.845C18.7261 42.0987 18.0967 43.758 18.1375 45.4691C18.1783 47.1801 18.8859 48.8076 20.1095 50.0044C21.3332 51.2011 22.9759 51.8725 24.6875 51.8752H27.8125C28.5584 51.8752 29.2738 52.1716 29.8012 52.699C30.3287 53.2264 30.625 53.9418 30.625 54.6877C30.625 55.4337 30.3287 56.149 29.8012 56.6765C29.2738 57.2039 28.5584 57.5002 27.8125 57.5002H23.125C22.7936 57.4999 22.4759 57.3681 22.2415 57.1337C22.0072 56.8994 21.8754 56.5816 21.875 56.2502C21.875 55.753 21.6775 55.276 21.3258 54.9244C20.9742 54.5728 20.4973 54.3752 20 54.3752C19.5027 54.3752 19.0258 54.5728 18.6742 54.9244C18.3225 55.276 18.125 55.753 18.125 56.2502C18.1265 57.5759 18.6538 58.8468 19.5911 59.7841C20.5285 60.7215 21.7994 61.2488 23.125 61.2502H24.375V62.5002C24.375 62.9975 24.5725 63.4744 24.9242 63.8261C25.2758 64.1777 25.7527 64.3752 26.25 64.3752C26.7473 64.3752 27.2242 64.1777 27.5758 63.8261C27.9275 63.4744 28.125 62.9975 28.125 62.5002V61.2423C29.8345 61.158 31.4434 60.4092 32.6087 59.1555C33.7739 57.9018 34.4033 56.2425 34.3625 54.5314C34.3217 52.8203 33.6141 51.1929 32.3905 49.9961C31.1668 48.7994 29.5241 48.128 27.8125 48.1252H24.6875C23.9416 48.1252 23.2262 47.8289 22.6988 47.3015C22.1713 46.774 21.875 46.0587 21.875 45.3127C21.875 44.5668 22.1713 43.8514 22.6988 43.324C23.2262 42.7966 23.9416 42.5002 24.6875 42.5002H29.375C29.7064 42.5006 30.0241 42.6324 30.2585 42.8668C30.4928 43.1011 30.6246 43.4188 30.625 43.7502C30.625 44.2475 30.8225 44.7244 31.1742 45.0761C31.5258 45.4277 32.0027 45.6252 32.5 45.6252C32.9973 45.6252 33.4742 45.4277 33.8258 45.0761C34.1775 44.7244 34.375 44.2475 34.375 43.7502C34.3735 42.4246 33.8462 41.1537 32.9089 40.2164C31.9715 39.279 30.7006 38.7517 29.375 38.7502H28.125V37.5002C28.125 37.003 27.9275 36.5261 27.5758 36.1744C27.2242 35.8228 26.7473 35.6252 26.25 35.6252Z" fill="url(#paint0_linear)"/>
<path d="M35.3629 65.6623C35.6523 65.6376 35.948 65.6252 36.2501 65.6252H46.2501C46.351 65.6252 46.4509 65.6204 46.5512 65.6176C49.5412 61.7412 51.3557 57.088 51.7792 52.2107C52.2027 47.3335 51.2174 42.4371 48.9402 38.1034L39.6841 33.1252H32.8652C36.0375 34.3682 38.7951 36.4804 40.8216 39.2193C42.848 41.9583 44.0612 45.213 44.322 48.6102C44.5828 52.0073 43.8805 55.4091 42.2959 58.4252C40.7112 61.4414 38.3083 63.9497 35.3629 65.6623Z" fill="url(#paint1_linear)"/>
<path d="M30.6312 67.5886C26.1406 68.7087 21.3916 68.0685 17.3579 65.7992C13.3242 63.53 10.3114 59.8036 8.93721 55.3841C7.563 50.9647 7.93149 46.1869 9.96713 42.0304C12.0028 37.8739 15.5513 34.6536 19.8853 33.0297C17.4637 32.7446 15.192 31.7092 13.3883 30.0685C12.9163 29.6344 12.4815 29.1616 12.0883 28.655C8.56487 30.991 5.67424 34.1626 3.6741 37.887C1.67395 41.6113 0.626459 45.7727 0.625 50.0002C0.625 64.1299 12.1203 75.6252 26.25 75.6252C26.4916 75.6252 26.7322 75.6211 26.972 75.6144C27.2761 73.0675 28.0953 70.1541 30.0867 68.1C30.2622 67.9191 30.4444 67.7502 30.6312 67.5886Z" fill="url(#paint2_linear)"/>
<path d="M20.1567 15.0001C21.3145 15.827 22.8061 16.8948 24.5228 18.1251H43.8214C44.1871 18.1251 44.5508 18.1789 44.9008 18.2848L18.4692 0.54527C18.3611 0.472625 18.239 0.423317 18.1107 0.40049C17.9824 0.377663 17.8508 0.381819 17.7243 0.412692C17.5977 0.443565 17.4789 0.500478 17.3756 0.579801C17.2723 0.659123 17.1866 0.759114 17.124 0.873395C15.8206 3.24121 13.0726 9.93996 20.1567 15.0001Z" fill="url(#paint3_linear)"/>
<path d="M46.6139 20.1617C46.3742 20.0551 46.1147 20.0001 45.8524 20.0001H12.2175C12.0894 20.0001 11.9627 20.0263 11.8451 20.077C11.7275 20.1278 11.6215 20.2021 11.5337 20.2953C11.4459 20.3886 11.3781 20.4988 11.3345 20.6192C11.2908 20.7397 11.2723 20.8677 11.28 20.9956C11.7035 27.832 16.4838 31.2501 21.4066 31.2501H39.6844C39.9944 31.2501 40.2995 31.327 40.5725 31.4737L57.7635 40.7189C58.0619 40.8794 58.3112 41.1177 58.485 41.4086C58.6587 41.6994 58.7504 42.0319 58.7503 42.3707V55.0001C58.7503 58.3153 57.4334 61.4948 55.0892 63.839C52.745 66.1832 49.5655 67.5001 46.2503 67.5001H36.2503C28.9416 67.5001 28.6097 76.2215 28.6989 79.0939C28.7067 79.3372 28.809 79.5678 28.984 79.737C29.159 79.9062 29.393 80.0006 29.6364 80.0001H61.2503L80.0003 73.7501V35.0001L46.6139 20.1617Z" fill="url(#paint4_linear)"/>
</g>
<defs>
<linearGradient id="paint0_linear" x1="26.25" y1="35.6252" x2="26.25" y2="64.3752" gradientUnits="userSpaceOnUse">
<stop stop-color="#393E46"/>
<stop offset="1" stop-color="white"/>
</linearGradient>
<linearGradient id="paint1_linear" x1="42.3702" y1="33.1252" x2="42.3702" y2="65.6623" gradientUnits="userSpaceOnUse">
<stop stop-color="#393E46"/>
<stop offset="1" stop-color="white"/>
</linearGradient>
<linearGradient id="paint2_linear" x1="15.6281" y1="28.655" x2="15.6281" y2="75.6252" gradientUnits="userSpaceOnUse">
<stop stop-color="#393E46"/>
<stop offset="1" stop-color="white"/>
</linearGradient>
<linearGradient id="paint3_linear" x1="30.1975" y1="0.385986" x2="30.1975" y2="18.2848" gradientUnits="userSpaceOnUse">
<stop stop-color="#FF4C4C"/>
<stop offset="1" stop-color="#FF0000" stop-opacity="0"/>
</linearGradient>
<linearGradient id="paint4_linear" x1="45.6393" y1="20.0001" x2="45.6393" y2="80.0001" gradientUnits="userSpaceOnUse">
<stop stop-color="#FF4C4C"/>
<stop offset="1" stop-color="#FF0000" stop-opacity="0"/>
</linearGradient>
<clipPath id="clip0">
<rect width="80" height="80" fill="white"/>
</clipPath>
</defs>
</svg>
