<svg width="80" height="80" viewBox="0 0 80 80" fill="none" xmlns="http://www.w3.org/2000/svg">
<path d="M57.7852 32.9739V39.4739C61.4077 40.2097 65.1453 40.1671 68.7502 39.3489V32.8489C66.847 33.2356 64.9097 33.4295 62.9677 33.4276C61.2301 33.4304 59.4958 33.2785 57.7852 32.9739Z" fill="url(#paint0_linear)"/>
<path d="M48.0459 32.2937C48.2196 35.02 51.1059 37.445 55.2846 38.8162V32.3812C52.5829 31.6856 50.0958 30.331 48.0459 28.4387V32.2937Z" fill="url(#paint1_linear)"/>
<path d="M55.2846 57.1039V50.6039C52.5829 49.9083 50.0958 48.5537 48.0459 46.6614V50.5864C48.2196 53.3064 51.1059 55.7314 55.2846 57.1039Z" fill="url(#paint2_linear)"/>
<path d="M71.25 38.625C75.11 37.225 77.725 34.8937 77.8887 32.2975V28.4387C76.0028 30.1998 73.7284 31.4918 71.25 32.21V38.625Z" fill="url(#paint3_linear)"/>
<path d="M55.2846 47.9612V41.4537C52.5831 40.7577 50.0961 39.4032 48.0459 37.5112V41.4375C48.2196 44.1637 51.1059 46.5887 55.2846 47.9612Z" fill="url(#paint4_linear)"/>
<path d="M71.25 47.7637C75.11 46.3625 77.725 44.0325 77.8887 41.4362V37.5112C76.0028 39.2723 73.7284 40.5643 71.25 41.2825V47.7637Z" fill="url(#paint5_linear)"/>
<path d="M68.7502 48.4999V41.9199C66.8471 42.3076 64.9098 42.502 62.9677 42.4999C61.2301 42.5027 59.4958 42.3508 57.7852 42.0462V48.6249C61.4077 49.3608 65.1453 49.3182 68.7502 48.4999Z" fill="url(#paint6_linear)"/>
<path d="M55.2846 59.7398C52.5831 59.0446 50.096 57.6905 48.0459 55.7986V59.5361C48.0459 62.8873 50.9521 65.8111 55.2846 67.4236V59.7398Z" fill="url(#paint7_linear)"/>
<path d="M68.7502 57.6412V51.0649C66.847 51.4516 64.9097 51.6455 62.9677 51.6437C61.2301 51.6471 59.4957 51.4952 57.7852 51.1899V57.7637C61.4078 58.4987 65.1452 58.4561 68.7502 57.6387V57.6412Z" fill="url(#paint8_linear)"/>
<path d="M71.25 59.5701V67.1951C75.25 65.5426 77.8887 62.7289 77.8887 59.5326V55.7976C76.0029 57.5591 73.7285 58.8515 71.25 59.5701Z" fill="url(#paint9_linear)"/>
<path d="M68.7502 60.2075C66.8471 60.5948 64.9097 60.7887 62.9677 60.7863C61.2301 60.7896 59.4957 60.6378 57.7852 60.3325V68.1675C61.3997 68.9878 65.1571 68.9411 68.7502 68.0313V60.2075Z" fill="url(#paint10_linear)"/>
<path d="M77.8887 50.5788V46.655C76.0026 48.4161 73.7283 49.7084 71.25 50.4275V56.9075C75.11 55.5063 77.725 53.175 77.8887 50.5788Z" fill="url(#paint11_linear)"/>
<path d="M62.9671 30.9275C70.9071 30.9275 77.6221 27.4275 77.8884 23.2188V22.9688C77.8884 17.875 71.2084 13.75 62.9671 13.75C54.7259 13.75 48.0459 17.875 48.0459 22.9638V23.2213C48.3134 27.4225 55.0284 30.9275 62.9671 30.9275Z" fill="url(#paint12_linear)"/>
<path d="M27.6172 60.3825V68.1C31.2838 68.9787 35.1076 68.9663 38.7684 68.0637V60.2725C35.0915 61.0119 31.308 61.0492 27.6172 60.3825Z" fill="url(#paint13_linear)"/>
<path d="M30.9009 51.6362C29.9091 53.1405 28.8118 54.5724 27.6172 55.9212V57.84C29.3531 58.1845 31.1187 58.3574 32.8884 58.3563C34.8648 58.3596 36.8353 58.1424 38.7634 57.7087V51.125C36.8295 51.5155 34.8614 51.7115 32.8884 51.71C32.2209 51.7137 31.5597 51.6787 30.9009 51.6362Z" fill="url(#paint14_linear)"/>
<path d="M21.068 61.78L19.3242 63.0063C20.7751 64.9947 22.7954 66.4959 25.118 67.3113V59.8113C24.743 59.7038 24.3942 59.5613 24.0342 59.4463C23.0855 60.2663 22.1042 61.0525 21.068 61.78Z" fill="url(#paint15_linear)"/>
<path d="M32.375 49.1939C32.545 49.1939 32.7125 49.2139 32.8837 49.2139C34.8602 49.2174 36.8307 48.9998 38.7588 48.5651V42.0576C37.6134 42.2854 36.4555 42.4448 35.2913 42.5351C34.5339 44.8427 33.5574 47.0724 32.375 49.1939Z" fill="url(#paint16_linear)"/>
<path d="M33.125 22.9637C32.75 22.9637 32.375 22.985 32 23.0025L37.205 24.7525V30.7137C37.2038 33.8327 36.8175 36.9395 36.055 39.9637C42.745 39.1812 47.9387 35.9987 48.0437 32.3V32.1875C48.0462 27.0887 41.3662 22.9637 33.125 22.9637Z" fill="url(#paint17_linear)"/>
<path d="M41.2686 47.8425C45.2823 46.4125 47.9848 44.0087 48.0461 41.3425V37.605C46.1209 39.3969 43.7982 40.7065 41.2686 41.4262V47.8425Z" fill="url(#paint18_linear)"/>
<path d="M41.2686 56.9862C45.2823 55.5562 47.9848 53.1525 48.0461 50.4862V46.6775C46.1208 48.4695 43.7981 49.7795 41.2686 50.5V56.9862Z" fill="url(#paint19_linear)"/>
<path d="M41.2686 67.2501C45.3461 65.6051 48.0461 62.7676 48.0461 59.5351V55.8401C46.1168 57.6222 43.795 58.9249 41.2686 59.6426V67.2501Z" fill="url(#paint20_linear)"/>
<path d="M27.6374 31.6251C27.4119 31.624 27.1884 31.6676 26.9798 31.7534C26.7713 31.8393 26.5818 31.9656 26.4224 32.1251L17.3474 41.1976C17.113 41.4319 16.7951 41.5636 16.4636 41.5636C16.1322 41.5636 15.8143 41.4319 15.5799 41.1976L11.4461 37.0751C11.2863 36.9152 11.0964 36.7884 10.8875 36.7018C10.6786 36.6153 10.4548 36.5708 10.2286 36.5708C10.0025 36.5708 9.77863 36.6153 9.56974 36.7018C9.36084 36.7884 9.17103 36.9152 9.01114 37.0751C8.85126 37.235 8.72443 37.4248 8.6379 37.6337C8.55137 37.8426 8.50684 38.0665 8.50684 38.2926C8.50684 38.5187 8.55137 38.7426 8.6379 38.9515C8.72443 39.1604 8.85126 39.3502 9.01114 39.5101L15.2499 45.7501C15.5794 46.0613 16.0154 46.2346 16.4686 46.2346C16.9219 46.2346 17.3579 46.0613 17.6874 45.7501L28.8599 34.5776C29.1052 34.3371 29.2731 34.0287 29.3418 33.6921C29.4105 33.3555 29.377 33.006 29.2456 32.6885C29.1141 32.3711 28.8908 32.1002 28.6042 31.9107C28.3176 31.7212 27.9809 31.6217 27.6374 31.6251Z" fill="url(#paint21_linear)"/>
<path d="M18.2051 21.0125L1.70508 26.5462V30.7087C1.70488 36.4013 3.07438 42.0103 5.69794 47.0623C8.32149 52.1143 12.1221 56.4608 16.7788 59.735L18.2051 60.735L19.6301 59.735C24.2873 56.4611 28.0884 52.1147 30.7124 47.0627C33.3364 42.0107 34.7062 36.4015 34.7063 30.7087V26.5462L18.2051 21.0125ZM30.6251 36.3375L19.4513 47.5112C19.0594 47.9034 18.5941 48.2145 18.0819 48.4267C17.5697 48.639 17.0207 48.7482 16.4663 48.7482C15.9119 48.7482 15.3629 48.639 14.8507 48.4267C14.3386 48.2145 13.8732 47.9034 13.4813 47.5112L7.25008 41.2775C6.45841 40.4858 6.01365 39.4121 6.01365 38.2925C6.01365 37.1729 6.45841 36.0991 7.25008 35.3075C8.04175 34.5158 9.11549 34.071 10.2351 34.071C11.3547 34.071 12.4284 34.5158 13.2201 35.3075L16.4701 38.5575L24.6613 30.3687C25.0518 29.9752 25.5165 29.6632 26.0285 29.4508C26.5404 29.2384 27.0895 29.1297 27.6438 29.1312C28.4782 29.1325 29.2934 29.3809 29.9867 29.8451C30.6799 30.3094 31.2202 30.9686 31.5391 31.7395C31.8581 32.5105 31.9415 33.3587 31.7788 34.177C31.6161 34.9953 31.2146 35.7471 30.6251 36.3375Z" fill="url(#paint22_linear)"/>
<defs>
<linearGradient id="paint0_linear" x1="63.2677" y1="32.8489" x2="63.2677" y2="39.9959" gradientUnits="userSpaceOnUse">
<stop stop-color="#393E46"/>
<stop offset="1" stop-color="white"/>
</linearGradient>
<linearGradient id="paint1_linear" x1="51.6653" y1="28.4387" x2="51.6653" y2="38.8162" gradientUnits="userSpaceOnUse">
<stop stop-color="#393E46"/>
<stop offset="1" stop-color="white"/>
</linearGradient>
<linearGradient id="paint2_linear" x1="51.6653" y1="46.6614" x2="51.6653" y2="57.1039" gradientUnits="userSpaceOnUse">
<stop stop-color="#393E46"/>
<stop offset="1" stop-color="white"/>
</linearGradient>
<linearGradient id="paint3_linear" x1="74.5694" y1="28.4387" x2="74.5694" y2="38.625" gradientUnits="userSpaceOnUse">
<stop stop-color="#393E46"/>
<stop offset="1" stop-color="white"/>
</linearGradient>
<linearGradient id="paint4_linear" x1="51.6653" y1="37.5112" x2="51.6653" y2="47.9612" gradientUnits="userSpaceOnUse">
<stop stop-color="#FF4C4C"/>
<stop offset="1" stop-color="#FF0000" stop-opacity="0"/>
</linearGradient>
<linearGradient id="paint5_linear" x1="74.5694" y1="37.5112" x2="74.5694" y2="47.7637" gradientUnits="userSpaceOnUse">
<stop stop-color="#FF4C4C"/>
<stop offset="1" stop-color="#FF0000" stop-opacity="0"/>
</linearGradient>
<linearGradient id="paint6_linear" x1="63.2677" y1="41.9199" x2="63.2677" y2="49.1469" gradientUnits="userSpaceOnUse">
<stop stop-color="#FF4C4C"/>
<stop offset="1" stop-color="#FF0000" stop-opacity="0"/>
</linearGradient>
<linearGradient id="paint7_linear" x1="51.6653" y1="55.7986" x2="51.6653" y2="67.4236" gradientUnits="userSpaceOnUse">
<stop stop-color="#FF4C4C"/>
<stop offset="1" stop-color="#FF0000" stop-opacity="0"/>
</linearGradient>
<linearGradient id="paint8_linear" x1="63.2677" y1="51.0649" x2="63.2677" y2="58.285" gradientUnits="userSpaceOnUse">
<stop stop-color="#393E46"/>
<stop offset="1" stop-color="white"/>
</linearGradient>
<linearGradient id="paint9_linear" x1="74.5694" y1="55.7976" x2="74.5694" y2="67.1951" gradientUnits="userSpaceOnUse">
<stop stop-color="#FF4C4C"/>
<stop offset="1" stop-color="#FF0000" stop-opacity="0"/>
</linearGradient>
<linearGradient id="paint10_linear" x1="63.2677" y1="60.2075" x2="63.2677" y2="68.75" gradientUnits="userSpaceOnUse">
<stop stop-color="#FF4C4C"/>
<stop offset="1" stop-color="#FF0000" stop-opacity="0"/>
</linearGradient>
<linearGradient id="paint11_linear" x1="74.5694" y1="46.655" x2="74.5694" y2="56.9075" gradientUnits="userSpaceOnUse">
<stop stop-color="#393E46"/>
<stop offset="1" stop-color="white"/>
</linearGradient>
<linearGradient id="paint12_linear" x1="62.9671" y1="13.75" x2="62.9671" y2="30.9275" gradientUnits="userSpaceOnUse">
<stop stop-color="#FF4C4C"/>
<stop offset="1" stop-color="#FF0000" stop-opacity="0"/>
</linearGradient>
<linearGradient id="paint13_linear" x1="33.1928" y1="60.2725" x2="33.1928" y2="68.75" gradientUnits="userSpaceOnUse">
<stop stop-color="#393E46"/>
<stop offset="1" stop-color="white"/>
</linearGradient>
<linearGradient id="paint14_linear" x1="33.1903" y1="51.125" x2="33.1903" y2="58.3563" gradientUnits="userSpaceOnUse">
<stop stop-color="#FF4C4C"/>
<stop offset="1" stop-color="#FF0000" stop-opacity="0"/>
</linearGradient>
<linearGradient id="paint15_linear" x1="22.2211" y1="59.4463" x2="22.2211" y2="67.3113" gradientUnits="userSpaceOnUse">
<stop stop-color="#393E46"/>
<stop offset="1" stop-color="white"/>
</linearGradient>
<linearGradient id="paint16_linear" x1="35.5669" y1="42.0576" x2="35.5669" y2="49.2139" gradientUnits="userSpaceOnUse">
<stop stop-color="#393E46"/>
<stop offset="1" stop-color="white"/>
</linearGradient>
<linearGradient id="paint17_linear" x1="40.0219" y1="22.9637" x2="40.0219" y2="39.9637" gradientUnits="userSpaceOnUse">
<stop stop-color="#FF4C4C"/>
<stop offset="1" stop-color="#FF0000" stop-opacity="0"/>
</linearGradient>
<linearGradient id="paint18_linear" x1="44.6573" y1="37.605" x2="44.6573" y2="47.8425" gradientUnits="userSpaceOnUse">
<stop stop-color="#393E46"/>
<stop offset="1" stop-color="white"/>
</linearGradient>
<linearGradient id="paint19_linear" x1="44.6573" y1="46.6775" x2="44.6573" y2="56.9862" gradientUnits="userSpaceOnUse">
<stop stop-color="#FF4C4C"/>
<stop offset="1" stop-color="#FF0000" stop-opacity="0"/>
</linearGradient>
<linearGradient id="paint20_linear" x1="44.6573" y1="55.8401" x2="44.6573" y2="67.2501" gradientUnits="userSpaceOnUse">
<stop stop-color="#393E46"/>
<stop offset="1" stop-color="white"/>
</linearGradient>
<linearGradient id="paint21_linear" x1="18.9417" y1="31.625" x2="18.9417" y2="46.2346" gradientUnits="userSpaceOnUse">
<stop stop-color="#393E46"/>
<stop offset="1" stop-color="white"/>
</linearGradient>
<linearGradient id="paint22_linear" x1="18.2057" y1="21.0125" x2="18.2057" y2="60.735" gradientUnits="userSpaceOnUse">
<stop stop-color="#FF4C4C"/>
<stop offset="1" stop-color="#FF0000" stop-opacity="0"/>
</linearGradient>
</defs>
</svg>
