<svg width="42" height="42" viewBox="0 0 42 42" fill="none" xmlns="http://www.w3.org/2000/svg">
<g clip-path="url(#clip0)">
<path d="M0.283014 6.61804C0.27958 6.65502 0.277344 6.69231 0.277344 6.73017V39.0222C0.277344 39.6853 0.815049 40.223 1.47822 40.223H6.04523V37.8213V7.93104V6.61804H0.283014Z" fill="#DC2C2C"/>
<path d="M39.9658 1.22156H18.3145L28.2978 4.55041C28.299 4.55185 28.2999 4.55328 28.3011 4.5548C28.7462 4.73049 29.0616 5.16366 29.0616 5.67118V34.4548H39.9658C40.629 34.4548 41.1667 33.9171 41.1667 33.2539V2.42243C41.1667 1.7591 40.629 1.22156 39.9658 1.22156Z" fill="url(#paint0_linear)"/>
<path d="M7.94434 6.66669V6.77881V39.0708V40.2717H24.9558C25.619 40.2717 26.1567 39.734 26.1567 39.0708V38.9252V6.77881V6.66669H7.94434Z" fill="#DC2C2C"/>
<path d="M14.9658 2.6116V4.21594H19.9908L14.9658 2.6116Z" fill="url(#paint1_linear)"/>
</g>
<defs>
<linearGradient id="paint0_linear" x1="29.7406" y1="1.22156" x2="29.7406" y2="34.4548" gradientUnits="userSpaceOnUse">
<stop stop-color="#FFA4A4"/>
<stop offset="1" stop-color="#F1F1F1"/>
</linearGradient>
<linearGradient id="paint1_linear" x1="17.4783" y1="2.6116" x2="17.4783" y2="4.21594" gradientUnits="userSpaceOnUse">
<stop stop-color="#FFA4A4"/>
<stop offset="1" stop-color="#F1F1F1"/>
</linearGradient>
<clipPath id="clip0">
<rect width="40.8889" height="40.8889" fill="white" transform="translate(0.277344 0.277832)"/>
</clipPath>
</defs>
</svg>
