<svg width="42" height="42" viewBox="0 0 42 42" fill="none" xmlns="http://www.w3.org/2000/svg">
<path d="M40.4244 29.314L39.6556 28.9297L22.3291 37.5928C21.3347 38.0966 20.1093 38.0966 19.1149 37.5928L1.78845 28.9297L1.01963 29.314C0.613776 29.5169 0.357422 29.9317 0.357422 30.3854C0.357422 30.8392 0.613776 31.254 1.01963 31.4569L20.1863 41.0402C20.5235 41.2088 20.9205 41.2088 21.2577 41.0402L40.4244 31.4569C40.8302 31.254 41.0866 30.8392 41.0866 30.3854C41.0866 29.9317 40.8302 29.5169 40.4244 29.314Z" fill="#DC2C2C"/>
<path d="M40.4244 23.7237L39.6556 23.3393L22.3291 32.0025C21.3347 32.5062 20.1093 32.5062 19.1149 32.0025L1.78845 23.3393L1.01963 23.7237C0.613776 23.9265 0.357422 24.3413 0.357422 24.7951C0.357422 25.2489 0.613776 25.6637 1.01963 25.8665L20.1863 35.4498C20.5235 35.6185 20.9205 35.6185 21.2577 35.4498L40.4244 25.8665C40.8302 25.6637 41.0866 25.2489 41.0866 24.7951C41.0866 24.3413 40.8302 23.9265 40.4244 23.7237Z" fill="#DC2C2C"/>
<path d="M10.1871 14.3748L12.5829 18.5246C12.9137 19.0975 13.6463 19.2939 14.2193 18.963L15.2058 18.3934C15.8039 18.847 16.4464 19.2207 17.128 19.5115V20.6424C17.128 21.304 17.6644 21.8403 18.3259 21.8403H23.1176C23.7792 21.8403 24.3155 21.304 24.3155 20.6424V19.5115C24.9971 19.2207 25.6396 18.847 26.2378 18.3934L27.2242 18.963C27.7972 19.2938 28.5298 19.0975 28.8606 18.5246L31.2564 14.3748C31.5872 13.8019 31.3909 13.0693 30.818 12.7385L29.8357 12.1713C29.8823 11.7983 29.9058 11.4264 29.9058 11.0591C29.9058 10.6917 29.8823 10.3199 29.8358 9.94686L30.8181 9.37968C31.391 9.0489 31.5873 8.31625 31.2565 7.74333L28.8607 3.59359C28.5299 3.02066 27.7972 2.82428 27.2243 3.15515L26.2378 3.72464C25.6398 3.27119 24.9971 2.89736 24.3155 2.60658V1.47575C24.3155 0.814179 23.7792 0.277832 23.1176 0.277832H18.3259C17.6644 0.277832 17.128 0.814179 17.128 1.47575V2.60658C16.4464 2.89736 15.8038 3.27119 15.2058 3.72464L14.2193 3.15507C13.6464 2.82428 12.9138 3.02058 12.583 3.59351L10.1871 7.74325C9.85635 8.31617 10.0526 9.04882 10.6256 9.3796L11.6079 9.94678C11.5612 10.3199 11.5377 10.6917 11.5377 11.0591C11.5377 11.4264 11.5612 11.7983 11.6078 12.1713L10.6255 12.7385C10.0526 13.0693 9.85627 13.8019 10.1871 14.3748ZM20.7218 7.46533C22.7034 7.46533 24.3155 9.07749 24.3155 11.0591C24.3155 13.0407 22.7034 14.6528 20.7218 14.6528C18.7402 14.6528 17.128 13.0407 17.128 11.0591C17.128 9.07749 18.7402 7.46533 20.7218 7.46533Z" fill="url(#paint0_linear)"/>
<path d="M1.01963 20.2762L20.1863 29.8595C20.5235 30.0282 20.9205 30.0282 21.2577 29.8595L40.4244 20.2762C40.8302 20.0733 41.0866 19.6585 41.0866 19.2048C41.0866 18.751 40.8302 18.3362 40.4244 18.1334L33.6755 14.7589C33.5963 15.0374 33.4828 15.3107 33.3317 15.5725L30.9358 19.7223C30.2959 20.8307 29.1029 21.5194 27.8224 21.5194C27.8223 21.5194 27.8224 21.5194 27.8223 21.5194C27.4216 21.5194 27.0242 21.4518 26.6473 21.3213C26.3289 22.9793 24.8674 24.236 23.1178 24.236H18.3262C16.5767 24.236 15.1151 22.9793 14.7968 21.3213C14.4199 21.4518 14.0225 21.5194 13.6217 21.5194C12.3411 21.5194 11.1481 20.8308 10.5082 19.7221L8.11242 15.5727C7.9626 15.3133 7.8472 15.0405 7.76678 14.7599L1.01963 18.1334C0.613776 18.3362 0.357422 18.751 0.357422 19.2048C0.357422 19.6585 0.613776 20.0733 1.01963 20.2762Z" fill="#DC2C2C"/>
<defs>
<linearGradient id="paint0_linear" x1="20.7218" y1="0.277832" x2="20.7218" y2="21.8403" gradientUnits="userSpaceOnUse">
<stop stop-color="#FFA4A4"/>
<stop offset="1" stop-color="#F1F1F1"/>
</linearGradient>
</defs>
</svg>
