<svg width="42" height="42" viewBox="0 0 42 42" fill="none" xmlns="http://www.w3.org/2000/svg">
<g clip-path="url(#clip0)">
<path d="M17.2249 7.54523L14.7324 10.0377V12.3369H24.3158V10.0377L21.8233 7.54523H17.2249Z" fill="#DC2C2C"/>
<path d="M12.3366 9.54172C12.3366 9.22387 12.4628 8.9196 12.6872 8.69439L15.8816 5.49995C16.1068 5.27554 16.4111 5.14936 16.729 5.14936H22.3192C22.6371 5.14936 22.9413 5.27554 23.1666 5.49995L26.361 8.69439C26.5854 8.9196 26.7116 9.22387 26.7116 9.54172V12.3369H31.5033V2.67367C31.5033 1.35276 30.4283 0.277832 29.1074 0.277832H9.94076C8.61985 0.277832 7.54492 1.35276 7.54492 2.67367V12.3369H12.3366V9.54172Z" fill="url(#paint0_linear)"/>
<path d="M39.8883 21.9202H25.5133C25.1362 21.9202 24.7813 22.0978 24.555 22.3994L20.9613 27.1911C20.6418 27.617 20.6418 28.2027 20.9613 28.6286L24.555 33.4202C24.7813 33.7219 25.1362 33.8994 25.5133 33.8994H39.8883C40.5499 33.8994 41.0863 33.363 41.0863 32.7015V23.1181C41.0863 22.4566 40.5499 21.9202 39.8883 21.9202ZM29.1071 29.1077C28.4455 29.1077 27.9092 28.5714 27.9092 27.9098C27.9092 27.2482 28.4455 26.7119 29.1071 26.7119C29.7687 26.7119 30.305 27.2482 30.305 27.9098C30.305 28.5714 29.7687 29.1077 29.1071 29.1077Z" fill="url(#paint1_linear)"/>
<path d="M22.6387 34.8577L19.0449 30.0661C18.093 28.7963 18.093 27.0234 19.0449 25.7536L22.6387 20.9619C23.3143 20.0619 24.3884 19.5244 25.5137 19.5244H38.6908V17.1286C38.6908 15.8053 37.6182 14.7327 36.2949 14.7327H2.75326C1.42996 14.7327 0.357422 15.8053 0.357422 17.1286V38.7709C0.357422 40.0942 1.42996 41.1668 2.75326 41.1668H36.2949C37.6182 41.1668 38.6908 40.0942 38.6908 38.7709V36.2952H25.5137C24.3884 36.2952 23.3143 35.7578 22.6387 34.8577Z" fill="#DC2C2C"/>
</g>
<defs>
<linearGradient id="paint0_linear" x1="19.5241" y1="0.277832" x2="19.5241" y2="12.3369" gradientUnits="userSpaceOnUse">
<stop stop-color="#FFA4A4"/>
<stop offset="1" stop-color="#F1F1F1"/>
</linearGradient>
<linearGradient id="paint1_linear" x1="30.904" y1="21.9202" x2="30.904" y2="33.8994" gradientUnits="userSpaceOnUse">
<stop stop-color="#FFA4A4"/>
<stop offset="1" stop-color="#F1F1F1"/>
</linearGradient>
<clipPath id="clip0">
<rect width="40.8889" height="40.8889" fill="white" transform="translate(0.277344 0.277832)"/>
</clipPath>
</defs>
</svg>
