<svg width="80" height="80" viewBox="0 0 80 80" fill="none" xmlns="http://www.w3.org/2000/svg">
<path d="M21.6663 35H18.333V38.3333H21.6663C22.1084 38.3333 22.5323 38.1577 22.8449 37.8452C23.1574 37.5326 23.333 37.1087 23.333 36.6667C23.333 36.2246 23.1574 35.8007 22.8449 35.4882C22.5323 35.1756 22.1084 35 21.6663 35Z" fill="url(#paint0_linear)"/>
<path d="M20 25C17.0333 25 14.1332 25.8797 11.6665 27.528C9.19972 29.1762 7.27713 31.5189 6.14181 34.2597C5.0065 37.0006 4.70945 40.0166 5.28823 42.9264C5.86701 45.8361 7.29562 48.5088 9.3934 50.6066C11.4912 52.7044 14.1639 54.133 17.0737 54.7118C19.9834 55.2906 22.9994 54.9935 25.7403 53.8582C28.4811 52.7229 30.8238 50.8003 32.4721 48.3336C34.1203 45.8668 35 42.9667 35 40C35 36.0218 33.4197 32.2064 30.6066 29.3934C27.7936 26.5804 23.9783 25 20 25ZM23.3333 48.0333C23.353 48.2522 23.3294 48.4728 23.2639 48.6826C23.1983 48.8923 23.0921 49.0871 22.9513 49.2558C22.8104 49.4245 22.6377 49.5638 22.4431 49.6657C22.2484 49.7677 22.0355 49.8303 21.8167 49.85C21.5978 49.8697 21.3772 49.8461 21.1674 49.7805C20.9577 49.715 20.7629 49.6087 20.5942 49.4679C20.4255 49.3271 20.2862 49.1544 20.1843 48.9597C20.0823 48.7651 20.0197 48.5522 20 48.3333H18.3333C18.3333 48.7754 18.1577 49.1993 17.8452 49.5118C17.5326 49.8244 17.1087 50 16.6667 50C16.2246 50 15.8007 49.8244 15.4882 49.5118C15.1756 49.1993 15 48.7754 15 48.3333C14.558 48.3333 14.1341 48.1577 13.8215 47.8452C13.5089 47.5326 13.3333 47.1087 13.3333 46.6667C13.3333 46.2246 13.5089 45.8007 13.8215 45.4882C14.1341 45.1756 14.558 45 15 45V35C14.558 35 14.1341 34.8244 13.8215 34.5118C13.5089 34.1993 13.3333 33.7754 13.3333 33.3333C13.3333 32.8913 13.5089 32.4674 13.8215 32.1548C14.1341 31.8423 14.558 31.6667 15 31.6667C15 31.2246 15.1756 30.8007 15.4882 30.4882C15.8007 30.1756 16.2246 30 16.6667 30C17.1087 30 17.5326 30.1756 17.8452 30.4882C18.1577 30.8007 18.3333 31.2246 18.3333 31.6667H20C20.0398 31.2246 20.2535 30.8165 20.5942 30.5321C20.9349 30.2477 21.3746 30.1102 21.8167 30.15C22.2587 30.1898 22.6668 30.4035 22.9513 30.7442C23.2357 31.0849 23.3731 31.5246 23.3333 31.9667C24.1028 32.2442 24.7925 32.7063 25.3418 33.3124C25.8911 33.9186 26.2833 34.6502 26.484 35.4432C26.6847 36.2362 26.6878 37.0663 26.493 37.8608C26.2982 38.6553 25.9115 39.3898 25.3667 40C25.9115 40.6102 26.2982 41.3447 26.493 42.1392C26.6878 42.9337 26.6847 43.7638 26.484 44.5568C26.2833 45.3498 25.8911 46.0814 25.3418 46.6876C24.7925 47.2937 24.1028 47.7558 23.3333 48.0333Z" fill="url(#paint1_linear)"/>
<path d="M21.6663 41.6667H18.333V45.0001H21.6663C22.1084 45.0001 22.5323 44.8245 22.8449 44.5119C23.1574 44.1994 23.333 43.7754 23.333 43.3334C23.333 42.8914 23.1574 42.4675 22.8449 42.1549C22.5323 41.8423 22.1084 41.6667 21.6663 41.6667Z" fill="url(#paint2_linear)"/>
<path d="M75 40.0002C75 37.0335 74.1203 34.1334 72.4721 31.6667C70.8238 29.2 68.4811 27.2774 65.7403 26.1421C62.9994 25.0067 59.9834 24.7097 57.0737 25.2885C54.1639 25.8672 51.4912 27.2959 49.3934 29.3936C47.2956 31.4914 45.867 34.1642 45.2882 37.0739C44.7094 39.9836 45.0065 42.9996 46.1418 45.7405C47.2771 48.4814 49.1997 50.8241 51.6665 52.4723C54.1332 54.1205 57.0333 55.0002 60 55.0002C63.9783 55.0002 67.7936 53.4199 70.6066 50.6068C73.4197 47.7938 75 43.9785 75 40.0002ZM58.3333 48.0336C57.3608 47.6897 56.5183 47.0535 55.9216 46.212C55.3248 45.3706 55.0029 44.3652 55 43.3336C55 42.8916 55.1756 42.4676 55.4882 42.1551C55.8007 41.8425 56.2246 41.6669 56.6667 41.6669C57.1087 41.6669 57.5326 41.8425 57.8452 42.1551C58.1577 42.4676 58.3333 42.8916 58.3333 43.3336C58.3333 43.6632 58.4311 43.9854 58.6142 44.2595C58.7974 44.5336 59.0577 44.7472 59.3622 44.8734C59.6667 44.9995 60.0019 45.0325 60.3252 44.9682C60.6485 44.9039 60.9454 44.7452 61.1785 44.5121C61.4116 44.279 61.5703 43.982 61.6347 43.6587C61.699 43.3354 61.666 43.0003 61.5398 42.6958C61.4137 42.3912 61.2 42.1309 60.926 41.9478C60.6519 41.7647 60.3296 41.6669 60 41.6669C58.8274 41.6578 57.6954 41.2369 56.8017 40.4777C55.908 39.7185 55.3096 38.6694 55.111 37.5138C54.9124 36.3581 55.1264 35.1694 55.7154 34.1555C56.3044 33.1415 57.2311 32.3669 58.3333 31.9669C58.3333 31.5249 58.5089 31.101 58.8215 30.7884C59.1341 30.4758 59.558 30.3002 60 30.3002C60.442 30.3002 60.866 30.4758 61.1785 30.7884C61.4911 31.101 61.6667 31.5249 61.6667 31.9669C62.6393 32.3108 63.4817 32.947 64.0784 33.7885C64.6752 34.6299 64.9971 35.6353 65 36.6669C65 37.1089 64.8244 37.5329 64.5119 37.8454C64.1993 38.158 63.7754 38.3336 63.3333 38.3336C62.8913 38.3336 62.4674 38.158 62.1548 37.8454C61.8423 37.5329 61.6667 37.1089 61.6667 36.6669C61.6667 36.3373 61.5689 36.015 61.3858 35.741C61.2027 35.4669 60.9424 35.2533 60.6378 35.1271C60.3333 35.001 59.9982 34.968 59.6749 35.0323C59.3516 35.0966 59.0546 35.2553 58.8215 35.4884C58.5884 35.7215 58.4297 36.0185 58.3654 36.3418C58.3011 36.6651 58.3341 37.0002 58.4602 37.3047C58.5864 37.6093 58.8 37.8696 59.0741 38.0527C59.3481 38.2358 59.6704 38.3336 60 38.3336C61.1726 38.3427 62.3046 38.7636 63.1983 39.5228C64.092 40.2819 64.6904 41.3311 64.889 42.4867C65.0876 43.6424 64.8736 44.8311 64.2846 45.845C63.6956 46.859 62.769 47.6336 61.6667 48.0336C61.6667 48.4756 61.4911 48.8995 61.1785 49.2121C60.866 49.5246 60.442 49.7002 60 49.7002C59.558 49.7002 59.1341 49.5246 58.8215 49.2121C58.5089 48.8995 58.3333 48.4756 58.3333 48.0336Z" fill="url(#paint3_linear)"/>
<path d="M47.2165 26.8667C45.0048 25.6529 42.5227 25.0166 39.9999 25.0166C37.477 25.0166 34.9949 25.6529 32.7832 26.8667C34.537 28.5749 35.931 30.6171 36.8827 32.8727C37.8345 35.1284 38.3249 37.5518 38.3249 40C38.3249 42.4483 37.8345 44.8717 36.8827 47.1274C35.931 49.383 34.537 51.4252 32.7832 53.1334C34.9949 54.3472 37.477 54.9835 39.9999 54.9835C42.5227 54.9835 45.0048 54.3472 47.2165 53.1334C45.4627 51.4252 44.0688 49.383 43.117 47.1274C42.1652 44.8717 41.6749 42.4483 41.6749 40C41.6749 37.5518 42.1652 35.1284 43.117 32.8727C44.0688 30.6171 45.4627 28.5749 47.2165 26.8667Z" fill="url(#paint4_linear)"/>
<path d="M7.86657 20H14.9999V22.3667C16.0881 22.0524 17.2046 21.8458 18.3332 21.75V18.3333C18.3332 17.8913 18.1576 17.4674 17.8451 17.1548C17.5325 16.8423 17.1086 16.6667 16.6666 16.6667H7.86657C7.49968 16.0312 6.93335 15.5345 6.25543 15.2537C5.5775 14.9729 4.82587 14.9237 4.11709 15.1136C3.40831 15.3035 2.782 15.722 2.33531 16.3041C1.88861 16.8863 1.64648 17.5996 1.64648 18.3333C1.64648 19.0671 1.88861 19.7804 2.33531 20.3625C2.782 20.9447 3.40831 21.3632 4.11709 21.5531C4.82587 21.743 5.5775 21.6937 6.25543 21.4129C6.93335 21.1321 7.49968 20.6355 7.86657 20Z" fill="url(#paint5_linear)"/>
<path d="M19.9997 7.86681C19.9997 13.0168 19.6497 14.2168 20.9163 14.8168L26.6663 17.7001V22.9168C27.8322 23.3554 28.9493 23.914 29.9997 24.5835V16.6668C29.9997 15.3001 29.3497 15.3168 23.333 12.3001V7.86681C23.9685 7.49992 24.4651 6.9336 24.7459 6.25567C25.0267 5.57775 25.076 4.82611 24.8861 4.11733C24.6962 3.40855 24.2777 2.78225 23.6955 2.33555C23.1134 1.88885 22.4001 1.64673 21.6663 1.64673C20.9326 1.64673 20.2193 1.88885 19.6371 2.33555C19.055 2.78225 18.6365 3.40855 18.4466 4.11733C18.2567 4.82611 18.3059 5.57775 18.5867 6.25567C18.8675 6.9336 19.3642 7.49992 19.9997 7.86681Z" fill="url(#paint6_linear)"/>
<path d="M38.3337 14.5336V21.7502C39.4417 21.6336 40.5589 21.6336 41.667 21.7502V14.5336C42.3025 14.1667 42.7991 13.6003 43.0799 12.9224C43.3607 12.2445 43.41 11.4929 43.2201 10.7841C43.0302 10.0753 42.6117 9.449 42.0295 9.0023C41.4474 8.5556 40.7341 8.31348 40.0003 8.31348C39.2665 8.31348 38.5533 8.5556 37.9711 9.0023C37.389 9.449 36.9705 10.0753 36.7806 10.7841C36.5907 11.4929 36.6399 12.2445 36.9207 12.9224C37.2015 13.6003 37.6982 14.1667 38.3337 14.5336Z" fill="url(#paint7_linear)"/>
<path d="M61.667 21.75C62.7956 21.8458 63.9121 22.0524 65.0003 22.3667V20H72.1337C72.5005 20.6355 73.0669 21.1321 73.7448 21.4129C74.4227 21.6937 75.1744 21.743 75.8831 21.5531C76.5919 21.3632 77.2182 20.9447 77.6649 20.3625C78.1116 19.7804 78.3537 19.0671 78.3537 18.3333C78.3537 17.5996 78.1116 16.8863 77.6649 16.3041C77.2182 15.722 76.5919 15.3035 75.8831 15.1136C75.1744 14.9237 74.4227 14.9729 73.7448 15.2537C73.0669 15.5345 72.5005 16.0312 72.1337 16.6667H63.3337C62.8916 16.6667 62.4677 16.8423 62.1551 17.1548C61.8426 17.4674 61.667 17.8913 61.667 18.3333V21.75Z" fill="url(#paint8_linear)"/>
<path d="M53.3333 17.7001C59.3667 14.6835 60 14.7001 60 13.3335V7.86681C60.6355 7.49992 61.1321 6.9336 61.4129 6.25567C61.6937 5.57775 61.743 4.82611 61.5531 4.11733C61.3632 3.40855 60.9447 2.78225 60.3625 2.33555C59.7804 1.88885 59.0671 1.64673 58.3333 1.64673C57.5995 1.64673 56.8863 1.88885 56.3041 2.33555C55.722 2.78225 55.3035 3.40855 55.1136 4.11733C54.9237 4.82611 54.9729 5.57775 55.2537 6.25567C55.5345 6.9336 56.0312 7.49992 56.6667 7.86681V12.3001C50.6333 15.3168 50 15.3001 50 16.6668V24.6335C51.0504 23.964 52.1675 23.4054 53.3333 22.9668V17.7001Z" fill="url(#paint9_linear)"/>
<path d="M41.667 65.4668V58.3335C40.5589 58.4502 39.4417 58.4502 38.3337 58.3335V65.5668C37.6982 65.9337 37.2015 66.5 36.9207 67.178C36.6399 67.8559 36.5907 68.6075 36.7806 69.3163C36.9705 70.0251 37.389 70.6514 37.9711 71.0981C38.5533 71.5448 39.2665 71.7869 40.0003 71.7869C40.7341 71.7869 41.4474 71.5448 42.0295 71.0981C42.6117 70.6514 43.0302 70.0251 43.2201 69.3163C43.41 68.6075 43.3607 67.8559 43.0799 67.178C42.7991 66.5 42.3025 65.9337 41.667 65.5668V65.4668Z" fill="url(#paint10_linear)"/>
<path d="M18.3332 58.3335C17.2046 58.2376 16.0881 58.0311 14.9999 57.7168V60.0001H7.86657C7.49968 59.3647 6.93335 58.868 6.25543 58.5872C5.5775 58.3064 4.82587 58.2571 4.11709 58.447C3.40831 58.637 2.782 59.0554 2.33531 59.6376C1.88861 60.2197 1.64648 60.933 1.64648 61.6668C1.64648 62.4006 1.88861 63.1139 2.33531 63.696C2.782 64.2781 3.40831 64.6966 4.11709 64.8865C4.82587 65.0765 5.5775 65.0272 6.25543 64.7464C6.93335 64.4656 7.49968 63.9689 7.86657 63.3335H16.6666C17.1086 63.3335 17.5325 63.1579 17.8451 62.8453C18.1576 62.5327 18.3332 62.1088 18.3332 61.6668V58.3335Z" fill="url(#paint11_linear)"/>
<path d="M26.6663 62.3C20.633 65.3167 19.9997 65.3 19.9997 66.6667V72.1334C19.3642 72.5003 18.8675 73.0666 18.5867 73.7445C18.3059 74.4224 18.2567 75.1741 18.4466 75.8828C18.6365 76.5916 19.055 77.2179 19.6371 77.6646C20.2193 78.1113 20.9326 78.3534 21.6663 78.3534C22.4001 78.3534 23.1134 78.1113 23.6955 77.6646C24.2777 77.2179 24.6962 76.5916 24.8861 75.8828C25.076 75.1741 25.0267 74.4224 24.7459 73.7445C24.4651 73.0666 23.9685 72.5003 23.333 72.1334V67.7C29.3663 64.6834 29.9997 64.7 29.9997 63.3334V55.3667C28.9493 56.0362 27.8322 56.5948 26.6663 57.0334V62.3Z" fill="url(#paint12_linear)"/>
<path d="M72.1337 60.0002H65.0003V57.6335C63.915 57.9761 62.7984 58.2105 61.667 58.3335V61.6669C61.667 62.1089 61.8426 62.5328 62.1551 62.8454C62.4677 63.1579 62.8916 63.3335 63.3337 63.3335H72.1337C72.5005 63.969 73.0669 64.4657 73.7448 64.7465C74.4227 65.0273 75.1744 65.0765 75.8831 64.8866C76.5919 64.6967 77.2182 64.2782 77.6649 63.6961C78.1116 63.1139 78.3537 62.4007 78.3537 61.6669C78.3537 60.9331 78.1116 60.2198 77.6649 59.6377C77.2182 59.0555 76.5919 58.637 75.8831 58.4471C75.1744 58.2572 74.4227 58.3065 73.7448 58.5873C73.0669 58.8681 72.5005 59.3647 72.1337 60.0002Z" fill="url(#paint13_linear)"/>
<path d="M60 72.1334C60 66.9834 60.35 65.7834 59.0833 65.1834L53.3333 62.3001V57.0834C52.1675 56.6448 51.0504 56.0862 50 55.4167V63.3334C50 64.7001 50.65 64.6834 56.6667 67.7001V72.1334C56.0312 72.5003 55.5345 73.0666 55.2537 73.7446C54.9729 74.4225 54.9237 75.1741 55.1136 75.8829C55.3035 76.5917 55.722 77.218 56.3041 77.6647C56.8863 78.1114 57.5995 78.3535 58.3333 78.3535C59.0671 78.3535 59.7804 78.1114 60.3625 77.6647C60.9447 77.218 61.3632 76.5917 61.5531 75.8829C61.743 75.1741 61.6937 74.4225 61.4129 73.7446C61.1321 73.0666 60.6355 72.5003 60 72.1334Z" fill="url(#paint14_linear)"/>
<defs>
<linearGradient id="paint0_linear" x1="20.833" y1="35" x2="20.833" y2="38.3333" gradientUnits="userSpaceOnUse">
<stop stop-color="#393E46"/>
<stop offset="1" stop-color="white"/>
</linearGradient>
<linearGradient id="paint1_linear" x1="20" y1="25" x2="20" y2="55" gradientUnits="userSpaceOnUse">
<stop stop-color="#393E46"/>
<stop offset="1" stop-color="white"/>
</linearGradient>
<linearGradient id="paint2_linear" x1="20.833" y1="41.6667" x2="20.833" y2="45.0001" gradientUnits="userSpaceOnUse">
<stop stop-color="#393E46"/>
<stop offset="1" stop-color="white"/>
</linearGradient>
<linearGradient id="paint3_linear" x1="60" y1="25.0002" x2="60" y2="55.0002" gradientUnits="userSpaceOnUse">
<stop stop-color="#393E46"/>
<stop offset="1" stop-color="white"/>
</linearGradient>
<linearGradient id="paint4_linear" x1="39.9999" y1="25.0166" x2="39.9999" y2="54.9835" gradientUnits="userSpaceOnUse">
<stop stop-color="#FF4C4C"/>
<stop offset="1" stop-color="#FF0000" stop-opacity="0"/>
</linearGradient>
<linearGradient id="paint5_linear" x1="9.98986" y1="15" x2="9.98986" y2="22.3667" gradientUnits="userSpaceOnUse">
<stop stop-color="#FF4C4C"/>
<stop offset="1" stop-color="#FF0000" stop-opacity="0"/>
</linearGradient>
<linearGradient id="paint6_linear" x1="24.1663" y1="1.64673" x2="24.1663" y2="24.5835" gradientUnits="userSpaceOnUse">
<stop stop-color="#FF4C4C"/>
<stop offset="1" stop-color="#FF0000" stop-opacity="0"/>
</linearGradient>
<linearGradient id="paint7_linear" x1="40.0003" y1="8.31348" x2="40.0003" y2="21.7502" gradientUnits="userSpaceOnUse">
<stop stop-color="#FF4C4C"/>
<stop offset="1" stop-color="#FF0000" stop-opacity="0"/>
</linearGradient>
<linearGradient id="paint8_linear" x1="70.0104" y1="15" x2="70.0104" y2="22.3667" gradientUnits="userSpaceOnUse">
<stop stop-color="#FF4C4C"/>
<stop offset="1" stop-color="#FF0000" stop-opacity="0"/>
</linearGradient>
<linearGradient id="paint9_linear" x1="55.8333" y1="1.64673" x2="55.8333" y2="24.6335" gradientUnits="userSpaceOnUse">
<stop stop-color="#FF4C4C"/>
<stop offset="1" stop-color="#FF0000" stop-opacity="0"/>
</linearGradient>
<linearGradient id="paint10_linear" x1="40.0003" y1="58.3335" x2="40.0003" y2="71.7869" gradientUnits="userSpaceOnUse">
<stop stop-color="#FF4C4C"/>
<stop offset="1" stop-color="#FF0000" stop-opacity="0"/>
</linearGradient>
<linearGradient id="paint11_linear" x1="9.98986" y1="57.7168" x2="9.98986" y2="65.0001" gradientUnits="userSpaceOnUse">
<stop stop-color="#FF4C4C"/>
<stop offset="1" stop-color="#FF0000" stop-opacity="0"/>
</linearGradient>
<linearGradient id="paint12_linear" x1="24.1663" y1="55.3667" x2="24.1663" y2="78.3534" gradientUnits="userSpaceOnUse">
<stop stop-color="#FF4C4C"/>
<stop offset="1" stop-color="#FF0000" stop-opacity="0"/>
</linearGradient>
<linearGradient id="paint13_linear" x1="70.0104" y1="57.6335" x2="70.0104" y2="65.0002" gradientUnits="userSpaceOnUse">
<stop stop-color="#FF4C4C"/>
<stop offset="1" stop-color="#FF0000" stop-opacity="0"/>
</linearGradient>
<linearGradient id="paint14_linear" x1="55.8333" y1="55.4167" x2="55.8333" y2="78.3535" gradientUnits="userSpaceOnUse">
<stop stop-color="#FF4C4C"/>
<stop offset="1" stop-color="#FF0000" stop-opacity="0"/>
</linearGradient>
</defs>
</svg>
