<svg width="41" height="41" viewBox="0 0 41 41" fill="none" xmlns="http://www.w3.org/2000/svg">
<g clip-path="url(#clip0)">
<path d="M39.691 30.427H26.8333C26.4328 30.427 26.0588 30.6272 25.8367 30.9605L24.5951 32.8229H16.2938L15.0522 30.9605C14.8301 30.6272 14.4561 30.427 14.0556 30.427H1.19792C0.536347 30.427 0 30.9634 0 31.6249V33.6215C0 35.8268 1.78777 37.6145 3.99306 37.6145H36.8958C39.1011 37.6145 40.8889 35.8268 40.8889 33.6215V31.6249C40.8889 30.9634 40.3525 30.427 39.691 30.427Z" fill="url(#paint0_linear)"/>
<path d="M28.4309 18.8473C27.7694 18.8473 27.233 18.3109 27.233 17.6494C27.233 16.9878 27.7694 16.4515 28.4309 16.4515H28.7443C28.5405 15.0329 27.9808 13.7277 27.1582 12.6302L26.939 12.8494C26.705 13.0833 26.3984 13.2003 26.0919 13.2003C25.7854 13.2003 25.4788 13.0834 25.2449 12.8495C24.7771 12.3817 24.7771 11.6232 25.2448 11.1554L25.4641 10.9361C24.3666 10.1134 23.0614 9.55377 21.6428 9.34996V9.66326C21.6428 10.3248 21.1065 10.8612 20.4449 10.8612C19.7833 10.8612 19.247 10.3248 19.247 9.66326V9.34988C17.8284 9.55369 16.5233 10.1134 15.4257 10.936L15.645 11.1553C16.1128 11.6231 16.1127 12.3817 15.6449 12.8494C15.411 13.0833 15.1044 13.2002 14.7979 13.2002C14.4914 13.2002 14.1848 13.0833 13.9508 12.8493L13.7316 12.6301C12.909 13.7276 12.3493 15.0328 12.1455 16.4514H12.4587C13.1203 16.4514 13.6566 16.9877 13.6566 17.6493C13.6566 18.3109 13.1203 18.8472 12.4587 18.8472H12.1457C12.3089 19.9776 12.7025 21.0598 13.3108 22.0417H14.5758C15.0533 19.6982 16.9035 17.8481 19.2469 17.3705V14.4549C19.2469 13.7934 19.7833 13.257 20.4448 13.257C21.1064 13.257 21.6427 13.7934 21.6427 14.4549V17.3706C23.9862 17.8481 25.8363 19.6983 26.3139 22.0417H27.5789C28.1871 21.0598 28.5808 19.9776 28.7439 18.8473H28.4309Z" fill="url(#paint1_linear)"/>
<path d="M20.4442 19.6458C18.8823 19.6458 17.5501 20.6472 17.0557 22.0416H23.8326C23.3383 20.6472 22.006 19.6458 20.4442 19.6458Z" fill="#DC2C2C"/>
<path d="M17.0455 29.6319L17.5757 30.427H23.3125L23.8428 29.6315C24.5106 28.6296 25.6285 28.0312 26.833 28.0312H39.2115V6.86801C39.2115 4.88642 37.5993 3.27426 35.6177 3.27426H5.27051C3.28891 3.27426 1.67676 4.88642 1.67676 6.86801V28.0312H14.0552C15.2598 28.0312 16.3777 28.6296 17.0455 29.6319ZM11.6992 23.9398C10.367 22.0909 9.66287 19.9156 9.66287 17.6493C9.66287 11.7045 14.4993 6.86801 20.4441 6.86801C26.3889 6.86801 31.2254 11.7045 31.2254 17.6493C31.2254 19.9156 30.5212 22.0909 29.1891 23.9398C28.9639 24.2523 28.6023 24.4375 28.2172 24.4375H12.6711C12.286 24.4375 11.9243 24.2523 11.6992 23.9398Z" fill="#DC2C2C"/>
</g>
<defs>
<linearGradient id="paint0_linear" x1="20.4444" y1="30.427" x2="20.4444" y2="37.6145" gradientUnits="userSpaceOnUse">
<stop stop-color="#FFA4A4"/>
<stop offset="1" stop-color="#F1F1F1"/>
</linearGradient>
<linearGradient id="paint1_linear" x1="20.4449" y1="9.34988" x2="20.4449" y2="22.0417" gradientUnits="userSpaceOnUse">
<stop stop-color="#FFA4A4"/>
<stop offset="1" stop-color="#F1F1F1"/>
</linearGradient>
<clipPath id="clip0">
<rect width="40.8889" height="40.8889" fill="white"/>
</clipPath>
</defs>
</svg>
