<svg width="42" height="42" viewBox="0 0 42 42" fill="none" xmlns="http://www.w3.org/2000/svg">
<g clip-path="url(#clip0)">
<path d="M39.9681 2.91324H33.9785V10.1007H41.166V4.11116C41.166 3.44959 40.6297 2.91324 39.9681 2.91324Z" fill="url(#paint0_linear)"/>
<path d="M31.5829 2.91324H1.47526C0.813691 2.91324 0.277344 3.44959 0.277344 4.11116V10.1007H31.5829V2.91324Z" fill="url(#paint1_linear)"/>
<path d="M9.0625 20.7222H16.25V27.9097H9.0625V20.7222Z" fill="url(#paint2_linear)"/>
<path d="M0.277344 37.3334C0.277344 37.995 0.813691 38.5313 1.47526 38.5313H39.9683C40.6299 38.5313 41.1662 37.995 41.1662 37.3334V12.4966H0.277344V37.3334ZM29.1072 18.3264H33.5794C34.241 18.3264 34.7773 18.8628 34.7773 19.5244C34.7773 20.1859 34.241 20.7223 33.5794 20.7223H29.1072C28.4456 20.7223 27.9093 20.1859 27.9093 19.5244C27.9093 18.8628 28.4456 18.3264 29.1072 18.3264ZM26.7114 23.1181H33.5794C34.241 23.1181 34.7773 23.6545 34.7773 24.316C34.7773 24.9776 34.241 25.5139 33.5794 25.5139H26.7114C26.0498 25.5139 25.5135 24.9776 25.5135 24.316C25.5135 23.6545 26.0498 23.1181 26.7114 23.1181ZM26.7114 27.9098H33.5794C34.241 27.9098 34.7773 28.4461 34.7773 29.1077C34.7773 29.7693 34.241 30.3056 33.5794 30.3056H26.7114C26.0498 30.3056 25.5135 29.7693 25.5135 29.1077C25.5135 28.4461 26.0498 27.9098 26.7114 27.9098ZM6.66623 19.5244C6.66623 18.8628 7.20258 18.3264 7.86415 18.3264H17.4475C18.1091 18.3264 18.6454 18.8628 18.6454 19.5244V29.1077C18.6454 29.7693 18.1091 30.3056 17.4475 30.3056H7.86415C7.20258 30.3056 6.66623 29.7693 6.66623 29.1077V19.5244Z" fill="#DC2C2C"/>
</g>
<defs>
<linearGradient id="paint0_linear" x1="37.5723" y1="2.91324" x2="37.5723" y2="10.1007" gradientUnits="userSpaceOnUse">
<stop stop-color="#FFA4A4"/>
<stop offset="1" stop-color="#F1F1F1"/>
</linearGradient>
<linearGradient id="paint1_linear" x1="15.9301" y1="2.91324" x2="15.9301" y2="10.1007" gradientUnits="userSpaceOnUse">
<stop stop-color="#FFA4A4"/>
<stop offset="1" stop-color="#F1F1F1"/>
</linearGradient>
<linearGradient id="paint2_linear" x1="12.6563" y1="20.7222" x2="12.6563" y2="27.9097" gradientUnits="userSpaceOnUse">
<stop stop-color="#FFA4A4"/>
<stop offset="1" stop-color="#F1F1F1"/>
</linearGradient>
<clipPath id="clip0">
<rect width="40.8889" height="40.8889" fill="white" transform="translate(0.277344 0.277832)"/>
</clipPath>
</defs>
</svg>
