<svg width="41" height="41" viewBox="0 0 41 41" fill="none" xmlns="http://www.w3.org/2000/svg">
<g clip-path="url(#clip0)">
<path d="M9.83346 11.5302L5.13914 6.83591C2.05914 10.291 0.264021 14.623 0 19.2445H6.63111C6.88307 16.3213 8.04545 13.655 9.83346 11.5302Z" fill="#DC2C2C"/>
<path d="M6.63111 21.6445H0C0.264021 26.266 2.05914 30.598 5.13914 34.0531L9.83346 29.3588C8.04545 27.234 6.88307 24.5677 6.63111 21.6445Z" fill="#DC2C2C"/>
<path d="M19.2445 6.63111V0C14.623 0.264021 10.291 2.05914 6.83594 5.13914L11.5303 9.83346C13.655 8.04545 16.3214 6.88307 19.2445 6.63111Z" fill="#DC2C2C"/>
<path d="M6.83594 35.7499C10.291 38.8298 14.623 40.625 19.2445 40.8891V34.258C16.3214 34.006 13.655 32.8436 11.5303 31.0556L6.83594 35.7499Z" fill="#DC2C2C"/>
<path d="M31.9087 20.4443C31.9087 14.1228 26.7656 8.97971 20.4441 8.97971C14.1226 8.97971 8.97949 14.1228 8.97949 20.4443C8.97949 26.7658 14.1226 31.909 20.4441 31.909C26.7656 31.909 31.9087 26.7658 31.9087 20.4443ZM20.4441 19.2443C22.3913 19.2443 23.9753 20.8283 23.9753 22.7755C23.9753 24.3011 23.0025 25.6034 21.6441 26.0962V27.7034C21.6441 28.3658 21.1065 28.9034 20.4441 28.9034C19.7817 28.9034 19.2441 28.3658 19.2441 27.7034V26.3058H18.113C17.4506 26.3058 16.913 25.7682 16.913 25.1058C16.913 24.4435 17.4506 23.9058 18.113 23.9058H20.4441C21.0673 23.9058 21.5753 23.3986 21.5753 22.7755C21.5753 22.1515 21.0673 21.6443 20.4441 21.6443C18.4969 21.6443 16.913 20.0604 16.913 18.1132C16.913 16.5876 17.8866 15.2852 19.2441 14.7925V13.1853C19.2441 12.5229 19.7817 11.9853 20.4441 11.9853C21.1065 11.9853 21.6441 12.5229 21.6441 13.1853V14.5828H22.7753C23.4376 14.5828 23.9753 15.1205 23.9753 15.7828C23.9753 16.4452 23.4376 16.9828 22.7753 16.9828H20.4441C19.821 16.9828 19.313 17.49 19.313 18.1132C19.313 18.7371 19.821 19.2443 20.4441 19.2443Z" fill="url(#paint0_linear)"/>
<path d="M21.6445 34.258V40.8891C26.266 40.625 30.598 38.8299 34.0531 35.7499L29.3588 31.0556C27.234 32.8436 24.5677 34.006 21.6445 34.258Z" fill="#DC2C2C"/>
<path d="M34.0531 5.13914C30.5979 2.05914 26.266 0.264021 21.6445 0V6.63111C24.5677 6.88307 27.234 8.04545 29.3588 9.83346L34.0531 5.13914Z" fill="#DC2C2C"/>
<path d="M31.0557 29.3588L35.75 34.0531C38.8299 30.598 40.6251 26.266 40.8892 21.6445H34.258C34.0061 24.5677 32.8437 27.234 31.0557 29.3588Z" fill="#DC2C2C"/>
<path d="M34.258 19.2445H40.8892C40.6251 14.623 38.83 10.291 35.75 6.83591L31.0557 11.5302C32.8437 13.655 34.0061 16.3213 34.258 19.2445Z" fill="#DC2C2C"/>
</g>
<defs>
<linearGradient id="paint0_linear" x1="20.4441" y1="8.97971" x2="20.4441" y2="31.909" gradientUnits="userSpaceOnUse">
<stop stop-color="#FFA4A4"/>
<stop offset="1" stop-color="#F1F1F1"/>
</linearGradient>
<clipPath id="clip0">
<rect width="40.8889" height="40.8889" fill="white"/>
</clipPath>
</defs>
</svg>
