<svg width="59" height="59" viewBox="0 0 59 59" fill="none" xmlns="http://www.w3.org/2000/svg">
<path d="M44.3053 29.1127C42.6245 31.9767 40.2295 34.3558 37.3544 36.0175L29.5 40.5624L21.6456 36.0175C18.7069 34.3166 16.2673 31.8726 14.5716 28.9309C12.8758 25.9892 11.9836 22.6533 11.9844 19.2578V10.1405C14.9301 10.1407 17.8511 9.60332 20.6039 8.55486C21.1202 8.36126 21.6272 8.14923 22.125 7.90955V10.961C22.1269 14.3559 23.0203 17.6908 24.7158 20.632C26.4112 23.5732 28.8494 26.0176 31.7863 27.7206C33.6623 28.8083 35.7441 29.4937 37.8994 29.7333C40.0546 29.973 42.2362 29.7616 44.3053 29.1127Z" fill="url(#paint0_linear)"/>
<path d="M10.1406 50.7031H48.8594V56.2344H10.1406V50.7031Z" fill="#2E2626"/>
<path d="M16.5938 37.7969H42.4062V50.7031H16.5938V37.7969Z" fill="#2E2626"/>
<path d="M29.5 7.65149C25.5208 10.8573 20.7374 12.9081 15.6719 13.5801V19.257C15.6766 22.0036 16.401 24.7011 17.773 27.0806C19.1449 29.4601 21.1165 31.4385 23.4912 32.8187L29.5 36.3015L35.5088 32.8187C37.883 31.4388 39.8542 29.461 41.2261 27.0822C42.598 24.7034 43.3228 22.0067 43.3281 19.2607V13.5838C38.2624 12.9103 33.479 10.8582 29.5 7.65149ZM33.6484 22.4586L34.6275 28.1678L29.5 25.4759L24.3725 28.1715L25.3516 22.4623L21.2031 18.4181L26.9363 17.5884L29.5 12.3908L32.0637 17.5856L37.7969 18.4153L33.6484 22.4586Z" fill="url(#paint1_linear)"/>
<path d="M29.5 12.3909L29.0805 16.0516C29.0079 16.6859 29.1012 17.3281 29.3513 17.9155C29.6013 18.5029 29.9996 19.0153 30.5071 19.4026C31.0146 19.7899 31.614 20.0388 32.2466 20.1249C32.8791 20.2111 33.5232 20.1315 34.1158 19.894L37.7969 18.4181L33.6484 22.4624L34.6275 28.1715L29.5 25.476L24.3725 28.1715L25.3516 22.4624L21.2031 18.4181L26.9363 17.5884L29.5 12.3909Z" fill="url(#paint2_linear)"/>
<path d="M22.125 41.4844H36.875V45.1719H22.125V41.4844Z" fill="url(#paint3_linear)"/>
<path d="M48.8594 49.7811H43.3281V37.7967C43.3281 37.5522 43.231 37.3177 43.0581 37.1449C42.8852 36.972 42.6507 36.8749 42.4062 36.8749H37.7047L37.8135 36.8122C40.8877 35.0265 43.4402 32.4663 45.2165 29.3867C46.9929 26.3071 47.931 22.8158 47.9375 19.2606V10.1405C47.9375 9.89598 47.8404 9.6615 47.6675 9.48862C47.4946 9.31573 47.2601 9.21861 47.0156 9.21861C41.3025 9.22048 35.7877 7.12382 31.5189 3.3269L30.1121 2.07684C29.9434 1.92677 29.7254 1.84387 29.4995 1.84387C29.2737 1.84387 29.0557 1.92677 28.887 2.07684L27.4811 3.3269C23.2123 7.12382 17.6975 9.22048 11.9844 9.21861C11.7399 9.21861 11.5054 9.31573 11.3325 9.48862C11.1596 9.6615 11.0625 9.89598 11.0625 10.1405V19.2606C11.0686 22.8153 12.0061 26.3063 13.7816 29.3859C15.5571 32.4654 18.1086 35.0259 21.1819 36.8122L21.2953 36.8749H16.5938C16.3493 36.8749 16.1148 36.972 15.9419 37.1449C15.769 37.3177 15.6719 37.5522 15.6719 37.7967V49.7811H10.1406C9.89613 49.7811 9.66165 49.8782 9.48876 50.0511C9.31588 50.224 9.21875 50.4585 9.21875 50.703V56.2342C9.21875 56.4787 9.31588 56.7132 9.48876 56.8861C9.66165 57.059 9.89613 57.1561 10.1406 57.1561H48.8594C49.1039 57.1561 49.3384 57.059 49.5112 56.8861C49.6841 56.7132 49.7812 56.4787 49.7812 56.2342V50.703C49.7812 50.4585 49.6841 50.224 49.5112 50.0511C49.3384 49.8782 49.1039 49.7811 48.8594 49.7811ZM22.1056 35.2155C19.312 33.5916 16.9926 31.264 15.3785 28.4647C13.7644 25.6653 12.912 22.4919 12.9062 19.2606V11.0448C18.7505 10.8327 24.3378 8.58945 28.7063 4.70142L29.5 3.99895L30.2947 4.70418C34.6633 8.59095 40.2502 10.8332 46.0938 11.0448V19.2606C46.088 22.492 45.2355 25.6656 43.6212 28.4649C42.007 31.2643 39.6873 33.5918 36.8934 35.2155L34.0292 36.8749H30.349L35.9725 33.6206C38.4867 32.1591 40.574 30.0641 42.0263 27.5445C43.4787 25.025 44.2454 22.1688 44.25 19.2606V13.5837C44.2499 13.3603 44.1688 13.1445 44.0216 12.9765C43.8744 12.8085 43.6712 12.6996 43.4498 12.6701C38.553 12.019 33.9291 10.0355 30.0826 6.93604C29.9188 6.80421 29.7149 6.73233 29.5046 6.73233C29.2943 6.73233 29.0904 6.80421 28.9266 6.93604C25.079 10.0366 20.4533 12.0202 15.5548 12.6701C15.3334 12.6996 15.1302 12.8085 14.983 12.9765C14.8358 13.1445 14.7547 13.3603 14.7546 13.5837V19.2606C14.7592 22.1684 15.5256 25.0243 16.9774 27.5438C18.4293 30.0633 20.5158 32.1585 23.0294 33.6206L28.6528 36.8749H24.9699L22.1056 35.2155ZM29.5 35.2367L23.9531 32.0249C21.7181 30.7258 19.8625 28.8637 18.5713 26.6241C17.28 24.3846 16.5982 21.8457 16.5938 19.2606V14.3811C21.2883 13.6226 25.7222 11.7141 29.5 8.82589C33.278 11.7138 37.7118 13.6223 42.4062 14.3811V19.2615C42.4018 21.8466 41.72 24.3855 40.4287 26.625C39.1375 28.8646 37.2819 30.7267 35.0469 32.0258L29.5 35.2367ZM17.5156 38.7186H41.4844V49.7811H17.5156V38.7186ZM47.9375 55.3124H11.0625V51.6249H47.9375V55.3124Z" fill="#DC2C2C"/>
<path d="M34.6386 22.7842L38.4423 19.0829C38.5653 18.9628 38.6522 18.8108 38.6934 18.6439C38.7345 18.477 38.7281 18.3019 38.675 18.1384C38.6219 17.9749 38.5241 17.8296 38.3928 17.7187C38.2614 17.6079 38.1017 17.536 37.9316 17.5111L32.6769 16.7478L30.3298 11.9845C30.2454 11.8392 30.1243 11.7187 29.9787 11.6349C29.8331 11.5512 29.6681 11.5071 29.5001 11.5071C29.3321 11.5071 29.1671 11.5512 29.0215 11.6349C28.8759 11.7187 28.7548 11.8392 28.6704 11.9845L26.3215 16.745L21.0668 17.5084C20.8963 17.5331 20.7361 17.6051 20.6045 17.7163C20.4729 17.8274 20.375 17.9732 20.322 18.1372C20.269 18.3011 20.2631 18.4766 20.3047 18.6438C20.3464 18.8109 20.4341 18.9631 20.5579 19.0829L24.3588 22.7888L23.4618 28.0214C23.4341 28.1904 23.454 28.3638 23.5193 28.5221C23.5846 28.6804 23.6928 28.8174 23.8315 28.9177C23.9703 29.018 24.1343 29.0776 24.3051 29.09C24.4759 29.1023 24.6468 29.0669 24.7985 28.9875L29.5001 26.5178L34.2017 28.9875C34.3336 29.0579 34.4808 29.0946 34.6303 29.0945C34.7646 29.0945 34.8973 29.0652 35.0191 29.0087C35.1408 28.9521 35.2488 28.8696 35.3354 28.767C35.4219 28.6643 35.4851 28.544 35.5203 28.4144C35.5555 28.2849 35.562 28.1492 35.5393 28.0168L34.6386 22.7842ZM33.0032 21.8024C32.8963 21.9068 32.8164 22.0356 32.7703 22.1777C32.7242 22.3199 32.7133 22.4711 32.7386 22.6183L33.4015 26.4902L29.9288 24.6603C29.7966 24.5908 29.6494 24.5545 29.5001 24.5545C29.3508 24.5545 29.2036 24.5908 29.0714 24.6603L25.5969 26.4865L26.2606 22.6146C26.2858 22.4673 26.2748 22.316 26.2286 22.1739C26.1823 22.0318 26.1022 21.903 25.9951 21.7988L23.1843 19.0589L27.0682 18.4938C27.2162 18.4726 27.3568 18.4157 27.4779 18.328C27.599 18.2403 27.6969 18.1245 27.7633 17.9905L29.5001 14.4735L31.2378 17.9942C31.3037 18.1284 31.4013 18.2444 31.5223 18.3322C31.6433 18.4199 31.784 18.4767 31.932 18.4975L35.8159 19.0626L33.0032 21.8024Z" fill="#DC2C2C"/>
<path d="M36.875 40.5625H22.125C21.8805 40.5625 21.646 40.6596 21.4731 40.8325C21.3003 41.0054 21.2031 41.2399 21.2031 41.4844V45.1719C21.2031 45.4164 21.3003 45.6509 21.4731 45.8237C21.646 45.9966 21.8805 46.0938 22.125 46.0938H36.875C37.1195 46.0938 37.354 45.9966 37.5269 45.8237C37.6997 45.6509 37.7969 45.4164 37.7969 45.1719V41.4844C37.7969 41.2399 37.6997 41.0054 37.5269 40.8325C37.354 40.6596 37.1195 40.5625 36.875 40.5625ZM35.9531 44.25H23.0469V42.4062H35.9531V44.25Z" fill="#DC2C2C"/>
<path d="M52.5469 5.07031H51.625V4.14844C51.625 3.90394 51.5279 3.66946 51.355 3.49657C51.1821 3.32369 50.9476 3.22656 50.7031 3.22656C50.4586 3.22656 50.2241 3.32369 50.0513 3.49657C49.8784 3.66946 49.7812 3.90394 49.7812 4.14844V5.07031H48.8594C48.6149 5.07031 48.3804 5.16744 48.2075 5.34032C48.0346 5.51321 47.9375 5.74769 47.9375 5.99219C47.9375 6.23668 48.0346 6.47117 48.2075 6.64405C48.3804 6.81694 48.6149 6.91406 48.8594 6.91406H49.7812V7.83594C49.7812 8.08043 49.8784 8.31492 50.0513 8.4878C50.2241 8.66069 50.4586 8.75781 50.7031 8.75781C50.9476 8.75781 51.1821 8.66069 51.355 8.4878C51.5279 8.31492 51.625 8.08043 51.625 7.83594V6.91406H52.5469C52.7914 6.91406 53.0259 6.81694 53.1987 6.64405C53.3716 6.47117 53.4688 6.23668 53.4688 5.99219C53.4688 5.74769 53.3716 5.51321 53.1987 5.34032C53.0259 5.16744 52.7914 5.07031 52.5469 5.07031Z" fill="#DC2C2C"/>
<path d="M56.2344 7.375C56.7435 7.375 57.1562 6.96226 57.1562 6.45312C57.1562 5.94399 56.7435 5.53125 56.2344 5.53125C55.7252 5.53125 55.3125 5.94399 55.3125 6.45312C55.3125 6.96226 55.7252 7.375 56.2344 7.375Z" fill="#DC2C2C"/>
<path d="M46.0938 3.6875C46.6029 3.6875 47.0156 3.27476 47.0156 2.76562C47.0156 2.25649 46.6029 1.84375 46.0938 1.84375C45.5846 1.84375 45.1719 2.25649 45.1719 2.76562C45.1719 3.27476 45.5846 3.6875 46.0938 3.6875Z" fill="#DC2C2C"/>
<path d="M50.7031 34.5703H49.7812V33.6484C49.7812 33.4039 49.6841 33.1695 49.5112 32.9966C49.3384 32.8237 49.1039 32.7266 48.8594 32.7266C48.6149 32.7266 48.3804 32.8237 48.2075 32.9966C48.0346 33.1695 47.9375 33.4039 47.9375 33.6484V34.5703H47.0156C46.7711 34.5703 46.5366 34.6674 46.3638 34.8403C46.1909 35.0132 46.0938 35.2477 46.0938 35.4922C46.0938 35.7367 46.1909 35.9712 46.3638 36.1441C46.5366 36.3169 46.7711 36.4141 47.0156 36.4141H47.9375V37.3359C47.9375 37.5804 48.0346 37.8149 48.2075 37.9878C48.3804 38.1607 48.6149 38.2578 48.8594 38.2578C49.1039 38.2578 49.3384 38.1607 49.5112 37.9878C49.6841 37.8149 49.7812 37.5804 49.7812 37.3359V36.4141H50.7031C50.9476 36.4141 51.1821 36.3169 51.355 36.1441C51.5279 35.9712 51.625 35.7367 51.625 35.4922C51.625 35.2477 51.5279 35.0132 51.355 34.8403C51.1821 34.6674 50.9476 34.5703 50.7031 34.5703Z" fill="#DC2C2C"/>
<path d="M55.3125 36.875C55.8216 36.875 56.2344 36.4623 56.2344 35.9531C56.2344 35.444 55.8216 35.0312 55.3125 35.0312C54.8034 35.0312 54.3906 35.444 54.3906 35.9531C54.3906 36.4623 54.8034 36.875 55.3125 36.875Z" fill="#DC2C2C"/>
<path d="M52.5469 30.4219C53.056 30.4219 53.4688 30.0091 53.4688 29.5C53.4688 28.9909 53.056 28.5781 52.5469 28.5781C52.0377 28.5781 51.625 28.9909 51.625 29.5C51.625 30.0091 52.0377 30.4219 52.5469 30.4219Z" fill="#DC2C2C"/>
<path d="M10.1406 37.3359V36.4141H11.0625C11.307 36.4141 11.5415 36.3169 11.7144 36.1441C11.8872 35.9712 11.9844 35.7367 11.9844 35.4922C11.9844 35.2477 11.8872 35.0132 11.7144 34.8403C11.5415 34.6674 11.307 34.5703 11.0625 34.5703H10.1406V33.6484C10.1406 33.4039 10.0435 33.1695 9.87061 32.9966C9.69773 32.8237 9.46325 32.7266 9.21875 32.7266C8.97425 32.7266 8.73977 32.8237 8.56689 32.9966C8.394 33.1695 8.29688 33.4039 8.29688 33.6484V34.5703H7.375C7.1305 34.5703 6.89602 34.6674 6.72314 34.8403C6.55025 35.0132 6.45312 35.2477 6.45312 35.4922C6.45312 35.7367 6.55025 35.9712 6.72314 36.1441C6.89602 36.3169 7.1305 36.4141 7.375 36.4141H8.29688V37.3359C8.29688 37.5804 8.394 37.8149 8.56689 37.9878C8.73977 38.1607 8.97425 38.2578 9.21875 38.2578C9.46325 38.2578 9.69773 38.1607 9.87061 37.9878C10.0435 37.8149 10.1406 37.5804 10.1406 37.3359Z" fill="#DC2C2C"/>
<path d="M7.375 42.4062H6.45312V41.4844C6.45312 41.2399 6.356 41.0054 6.18311 40.8325C6.01023 40.6596 5.77575 40.5625 5.53125 40.5625C5.28675 40.5625 5.05227 40.6596 4.87939 40.8325C4.7065 41.0054 4.60938 41.2399 4.60938 41.4844V42.4062H3.6875C3.443 42.4062 3.20852 42.5034 3.03564 42.6763C2.86275 42.8491 2.76563 43.0836 2.76562 43.3281C2.76563 43.5726 2.86275 43.8071 3.03564 43.98C3.20852 44.1529 3.443 44.25 3.6875 44.25H4.60938V45.1719C4.60938 45.4164 4.7065 45.6509 4.87939 45.8237C5.05227 45.9966 5.28675 46.0938 5.53125 46.0938C5.77575 46.0938 6.01023 45.9966 6.18311 45.8237C6.356 45.6509 6.45312 45.4164 6.45312 45.1719V44.25H7.375C7.6195 44.25 7.85398 44.1529 8.02686 43.98C8.19975 43.8071 8.29688 43.5726 8.29688 43.3281C8.29688 43.0836 8.19975 42.8491 8.02686 42.6763C7.85398 42.5034 7.6195 42.4062 7.375 42.4062Z" fill="#DC2C2C"/>
<path d="M2.76562 11.9844H3.6875V12.9062C3.6875 13.1507 3.78463 13.3852 3.95751 13.5581C4.1304 13.731 4.36488 13.8281 4.60938 13.8281C4.85387 13.8281 5.08835 13.731 5.26124 13.5581C5.43412 13.3852 5.53125 13.1507 5.53125 12.9062V11.9844H6.45312C6.69762 11.9844 6.9321 11.8872 7.10499 11.7144C7.27787 11.5415 7.375 11.307 7.375 11.0625C7.375 10.818 7.27787 10.5835 7.10499 10.4106C6.9321 10.2378 6.69762 10.1406 6.45312 10.1406H5.53125V9.21875C5.53125 8.97425 5.43412 8.73977 5.26124 8.56689C5.08835 8.394 4.85387 8.29688 4.60938 8.29688C4.36488 8.29688 4.1304 8.394 3.95751 8.56689C3.78463 8.73977 3.6875 8.97425 3.6875 9.21875V10.1406H2.76562C2.52113 10.1406 2.28665 10.2378 2.11376 10.4106C1.94088 10.5835 1.84375 10.818 1.84375 11.0625C1.84375 11.307 1.94088 11.5415 2.11376 11.7144C2.28665 11.8872 2.52113 11.9844 2.76562 11.9844Z" fill="#DC2C2C"/>
<path d="M10.1406 5.53125H11.0625V6.45312C11.0625 6.69762 11.1596 6.9321 11.3325 7.10499C11.5054 7.27787 11.7399 7.375 11.9844 7.375C12.2289 7.375 12.4634 7.27787 12.6362 7.10499C12.8091 6.9321 12.9062 6.69762 12.9062 6.45312V5.53125H13.8281C14.0726 5.53125 14.3071 5.43412 14.48 5.26124C14.6529 5.08835 14.75 4.85387 14.75 4.60938C14.75 4.36488 14.6529 4.1304 14.48 3.95751C14.3071 3.78463 14.0726 3.6875 13.8281 3.6875H12.9062V2.76562C12.9062 2.52113 12.8091 2.28665 12.6362 2.11376C12.4634 1.94088 12.2289 1.84375 11.9844 1.84375C11.7399 1.84375 11.5054 1.94088 11.3325 2.11376C11.1596 2.28665 11.0625 2.52113 11.0625 2.76562V3.6875H10.1406C9.89613 3.6875 9.66165 3.78463 9.48876 3.95751C9.31588 4.1304 9.21875 4.36488 9.21875 4.60938C9.21875 4.85387 9.31588 5.08835 9.48876 5.26124C9.66165 5.43412 9.89613 5.53125 10.1406 5.53125Z" fill="#DC2C2C"/>
<path d="M2.76562 36.875C3.27476 36.875 3.6875 36.4623 3.6875 35.9531C3.6875 35.444 3.27476 35.0312 2.76562 35.0312C2.25649 35.0312 1.84375 35.444 1.84375 35.9531C1.84375 36.4623 2.25649 36.875 2.76562 36.875Z" fill="#DC2C2C"/>
<path d="M5.53125 30.4219C6.04039 30.4219 6.45312 30.0091 6.45312 29.5C6.45312 28.9909 6.04039 28.5781 5.53125 28.5781C5.02211 28.5781 4.60938 28.9909 4.60938 29.5C4.60938 30.0091 5.02211 30.4219 5.53125 30.4219Z" fill="#DC2C2C"/>
<path d="M4.60938 5.53125C5.11851 5.53125 5.53125 5.11851 5.53125 4.60938C5.53125 4.10024 5.11851 3.6875 4.60938 3.6875C4.10024 3.6875 3.6875 4.10024 3.6875 4.60938C3.6875 5.11851 4.10024 5.53125 4.60938 5.53125Z" fill="#DC2C2C"/>
<defs>
<linearGradient id="paint0_linear" x1="28.1448" y1="7.90955" x2="28.1448" y2="40.5624" gradientUnits="userSpaceOnUse">
<stop stop-color="#DBDBDB"/>
<stop offset="1" stop-color="#A8A8A8"/>
</linearGradient>
<linearGradient id="paint1_linear" x1="29.5" y1="7.65149" x2="29.5" y2="36.3015" gradientUnits="userSpaceOnUse">
<stop/>
<stop offset="1" stop-color="#5D5D5D"/>
</linearGradient>
<linearGradient id="paint2_linear" x1="29.5" y1="12.3909" x2="29.5" y2="28.1715" gradientUnits="userSpaceOnUse">
<stop stop-color="#DBDBDB"/>
<stop offset="1" stop-color="#A8A8A8"/>
</linearGradient>
<linearGradient id="paint3_linear" x1="29.5" y1="41.4844" x2="29.5" y2="45.1719" gradientUnits="userSpaceOnUse">
<stop stop-color="#DBDBDB"/>
<stop offset="1" stop-color="#A8A8A8"/>
</linearGradient>
</defs>
</svg>
