<svg width="61" height="61" viewBox="0 0 61 61" fill="none" xmlns="http://www.w3.org/2000/svg">
<path d="M32.4062 10.4844L25.7344 2.85938C24.9177 3.67613 24.3975 4.74244 24.2564 5.88881C24.1153 7.03517 24.3614 8.1958 24.9557 9.18622L25.7344 10.4844H19.0625C18.5569 10.4844 18.0721 10.6852 17.7146 11.0427C17.3571 11.4002 17.1562 11.8851 17.1562 12.3906C17.1562 12.8962 17.3571 13.3811 17.7146 13.7385C18.0721 14.096 18.5569 14.2969 19.0625 14.2969C18.5569 14.2969 18.0721 14.4977 17.7146 14.8552C17.3571 15.2127 17.1562 15.6976 17.1562 16.2031C17.1562 16.7087 17.3571 17.1936 17.7146 17.551C18.0721 17.9085 18.5569 18.1094 19.0625 18.1094C18.5747 18.1279 18.1126 18.3329 17.7714 18.6821C17.4303 19.0312 17.2361 19.498 17.2288 19.9861C17.2216 20.4742 17.402 20.9465 17.7327 21.3056C18.0634 21.6647 18.5192 21.8832 19.0063 21.9162C18.5115 21.9308 18.0418 22.1372 17.6965 22.4919C17.3513 22.8466 17.1575 23.3217 17.1562 23.8167C17.1562 24.3223 17.3571 24.8071 17.7146 25.1646C18.0721 25.5221 18.5569 25.7229 19.0625 25.7229H20.9688V25.7344H28.1172C29.6639 25.7344 31.1689 25.2327 32.4062 24.3047C33.6436 23.3767 35.1486 22.875 36.6953 22.875H39.0781V10.4844H32.4062Z" fill="url(#paint0_linear)"/>
<path d="M21.9219 18.1094H19.0625C18.728 18.109 18.3996 18.0207 18.1101 17.8533C17.8205 17.6858 17.5802 17.4451 17.4131 17.1554C17.246 16.8657 17.1581 16.5371 17.1582 16.2026C17.1583 15.8682 17.2464 15.5396 17.4136 15.25C17.5807 15.5395 17.8211 15.78 18.1105 15.9472C18.3999 16.1145 18.7282 16.2028 19.0625 16.2031H20.0156C20.5212 16.2031 21.0061 16.404 21.3635 16.7615C21.721 17.1189 21.9219 17.6038 21.9219 18.1094Z" fill="#2E2626"/>
<path d="M21.9219 14.2969H19.0625C18.728 14.2965 18.3996 14.2082 18.1101 14.0408C17.8205 13.8733 17.5802 13.6326 17.4131 13.3429C17.246 13.0532 17.1581 12.7246 17.1582 12.3901C17.1583 12.0557 17.2464 11.7271 17.4136 11.4375C17.5807 11.727 17.8211 11.9675 18.1105 12.1347C18.3999 12.302 18.7282 12.3903 19.0625 12.3906H20.0156C20.5212 12.3906 21.0061 12.5915 21.3635 12.949C21.721 13.3064 21.9219 13.7913 21.9219 14.2969Z" fill="#2E2626"/>
<path d="M27.6406 10.4843H25.7344L24.9528 9.18805C24.4104 8.28101 24.1581 7.2299 24.2297 6.17548C24.3012 5.12106 24.6932 4.11367 25.3531 3.28821C25.1718 3.95682 25.1273 4.65516 25.2222 5.34139C25.3172 6.02761 25.5498 6.6876 25.906 7.2818L27.6406 10.4843Z" fill="#2E2626"/>
<path d="M35.2656 10.4844V14.8745C35.2776 15.5018 35.1155 16.1201 34.7974 16.6608C34.4792 17.2016 34.0174 17.6436 33.4633 17.9378C33.0801 18.1257 32.7154 18.3491 32.3739 18.605C31.0524 19.5549 29.4583 20.0499 27.8313 20.0156H20.9688L19.0625 20.0061C18.5578 20.004 18.0745 19.8017 17.7186 19.4437C17.6016 19.3297 17.4992 19.2017 17.4136 19.0625C17.248 19.3472 17.1594 19.6702 17.1565 19.9996C17.1536 20.329 17.2365 20.6535 17.3972 20.9411C17.5578 21.2287 17.7906 21.4695 18.0726 21.6398C18.3545 21.8101 18.676 21.904 19.0053 21.9123C18.5097 21.9272 18.0395 22.1346 17.6942 22.4905C17.349 22.8464 17.1561 23.3228 17.1563 23.8186C17.1549 24.0689 17.2041 24.3169 17.3007 24.5478C17.3973 24.7787 17.5394 24.9877 17.7186 25.1625C18.0745 25.5205 18.5578 25.7227 19.0625 25.7248H20.9688V25.7344H28.4346C29.8739 25.7029 31.2639 25.2041 32.3948 24.3133C33.6353 23.3818 35.1441 22.8772 36.6953 22.875H39.0781V10.4844H35.2656Z" fill="#2E2626"/>
<path d="M37.1719 8.57812H42.8906V24.7812H37.1719V8.57812Z" fill="url(#paint1_linear)"/>
<path d="M52.4219 20.8096L54.189 24.3905L58.1406 24.9642L55.2812 27.7521L55.9561 31.6876L52.4219 29.829L48.8877 31.6876L49.5625 27.7521L46.7031 24.9642L50.6548 24.3905L52.4219 20.8096Z" fill="url(#paint2_linear)"/>
<path d="M8.57812 20.8096L10.3452 24.3905L14.2969 24.9642L11.4375 27.7521L12.1123 31.6876L8.57812 29.829L5.04394 31.6876L5.71875 27.7521L2.85938 24.9642L6.81103 24.3905L8.57812 20.8096Z" fill="url(#paint3_linear)"/>
<path d="M2.85939 58.1404H30.5L6.65664 44.1628C4.16497 48.3992 2.85376 53.2257 2.85939 58.1404Z" fill="url(#paint4_linear)"/>
<path d="M58.1406 58.1406C58.1468 53.3621 56.9077 48.6646 54.5454 44.5109L30.5 58.1406H58.1406Z" fill="#FFBFBF"/>
<path d="M6.65625 44.1633L30.4996 58.1409L16.8385 34.1155C12.6252 36.5181 9.11468 39.9824 6.65625 44.1633Z" fill="#FFBFBF"/>
<path d="M44.5109 34.3184L30.5 58.1408L54.5454 44.5111C52.1484 40.2953 48.6887 36.7811 44.5109 34.3184Z" fill="url(#paint5_linear)"/>
<path d="M16.8389 34.1151L30.5 58.1405V30.4999C25.7092 30.4948 21.0001 31.741 16.8389 34.1151Z" fill="url(#paint6_linear)"/>
<path d="M30.5 30.4999V58.1405L44.5109 34.3181C40.267 31.8133 35.428 30.4946 30.5 30.4999Z" fill="#FFBFBF"/>
<path d="M51.4688 58.1406C51.4688 52.5794 49.2596 47.2459 45.3271 43.3135C41.3947 39.3811 36.0613 37.1719 30.5 37.1719C24.9387 37.1719 19.6053 39.3811 15.6729 43.3135C11.7405 47.2459 9.53125 52.5794 9.53125 58.1406H51.4688Z" fill="url(#paint7_linear)"/>
<path d="M30.5 37.1719C24.9387 37.1719 19.6053 39.3811 15.6729 43.3135C11.7405 47.2459 9.53125 52.5794 9.53125 58.1406H51.4688C51.4688 52.5794 49.2595 47.2459 45.3271 43.3135C41.3947 39.3811 36.0613 37.1719 30.5 37.1719ZM23.1705 41.0225C27.8073 39.5443 32.8137 39.7239 37.3327 41.5304C41.8517 43.337 45.6022 46.6582 47.9422 50.9255C43.2964 51.935 38.4547 51.5314 34.0402 49.7666C29.6256 48.0018 25.84 44.9565 23.1705 41.0225Z" fill="#2E2626"/>
<path d="M33.9309 56.2346L28.9746 53.3752L36.7092 43.5218C36.8726 43.3133 37.1058 43.1709 37.3659 43.1208C37.626 43.0707 37.8955 43.1163 38.1246 43.2492C38.3536 43.3816 38.5273 43.592 38.6138 43.842C38.7002 44.092 38.6937 44.3647 38.5955 44.6103L33.9309 56.2346Z" fill="#2E2626"/>
<path d="M32.9777 55.2815L28.0215 52.4221L35.7561 42.5687C35.9195 42.3602 36.1527 42.2177 36.4128 42.1676C36.6729 42.1175 36.9424 42.1632 37.1715 42.2961C37.4005 42.4284 37.5742 42.6389 37.6606 42.8889C37.7471 43.1388 37.7406 43.4116 37.6423 43.6572L32.9777 55.2815Z" fill="#FFBFBF"/>
<path d="M30.5 57.6641C32.6056 57.6641 34.3125 55.9571 34.3125 53.8516C34.3125 51.746 32.6056 50.0391 30.5 50.0391C28.3944 50.0391 26.6875 51.746 26.6875 53.8516C26.6875 55.9571 28.3944 57.6641 30.5 57.6641Z" fill="url(#paint8_linear)"/>
<path d="M52.4219 20.8096L51.9453 22.5395C51.8023 23.0563 51.8075 23.603 51.9603 24.117C52.1131 24.631 52.4074 25.0917 52.8096 25.4464C53.2117 25.8012 53.7056 26.0357 54.2346 26.1232C54.7637 26.2107 55.3067 26.1476 55.8017 25.9412L58.1406 24.9642L55.2812 27.7521L55.9561 31.6876L52.4219 29.8328L48.8877 31.6914L49.5625 27.7521L46.7031 24.9642L50.6548 24.3924L52.4219 20.8096Z" fill="#2E2626"/>
<path d="M8.57812 20.8096L8.10156 22.5395C7.95854 23.0563 7.96374 23.603 8.11657 24.117C8.26939 24.631 8.56369 25.0917 8.96584 25.4464C9.368 25.8012 9.8618 26.0357 10.3909 26.1232C10.9199 26.2107 11.463 26.1476 11.9579 25.9412L14.2969 24.9642L11.4375 27.7521L12.1123 31.6876L8.57812 29.8328L5.04394 31.6914L5.71875 27.7521L2.85938 24.9642L6.81103 24.3924L8.57812 20.8096Z" fill="#2E2626"/>
<path d="M19.062 26.6762H20.8224C20.8707 26.6839 20.9194 26.6877 20.9683 26.6876H28.1167C29.869 26.6836 31.5734 26.1155 32.9776 25.0673C33.9225 24.3687 35.0463 23.9526 36.2183 23.8673V24.7814C36.2183 25.0342 36.3187 25.2766 36.4974 25.4553C36.6762 25.6341 36.9186 25.7345 37.1714 25.7345H42.8901C43.1429 25.7345 43.3853 25.6341 43.5641 25.4553C43.7428 25.2766 43.8432 25.0342 43.8432 24.7814V8.57824C43.8432 8.32546 43.7428 8.08303 43.5641 7.90428C43.3853 7.72554 43.1429 7.62512 42.8901 7.62512H37.1714C36.9186 7.62512 36.6762 7.72554 36.4974 7.90428C36.3187 8.08303 36.2183 8.32546 36.2183 8.57824V9.53137H32.8385L26.4525 2.23234C26.3665 2.13374 26.2611 2.05392 26.1429 1.99784C26.0246 1.94176 25.8961 1.91062 25.7653 1.90637C25.6344 1.89682 25.503 1.91688 25.3809 1.96506C25.2588 2.01324 25.1491 2.08831 25.06 2.18468C24.1117 3.1305 23.4996 4.3612 23.3176 5.68817C23.1357 7.01514 23.3938 8.36517 24.0526 9.53137H19.062C18.5102 9.53175 17.9703 9.69179 17.5074 9.99219C17.0445 10.2926 16.6784 10.7205 16.4533 11.2243C16.2282 11.7281 16.1537 12.2863 16.2388 12.8315C16.3238 13.3767 16.5649 13.8857 16.9327 14.297C16.4627 14.8207 16.2026 15.4995 16.2026 16.2032C16.2026 16.9069 16.4627 17.5858 16.9327 18.1095C16.464 18.6321 16.2038 19.3089 16.2019 20.0109C16.2 20.7129 16.4564 21.3911 16.9222 21.9163C16.5556 22.3284 16.316 22.8378 16.2323 23.383C16.1486 23.9283 16.2244 24.4861 16.4506 24.9892C16.6768 25.4923 17.0437 25.9193 17.507 26.2186C17.9704 26.5179 18.5104 26.6768 19.062 26.6762ZM38.1245 9.53137H41.937V23.8282H38.1245V9.53137ZM19.0353 22.8694C19.1745 22.8631 19.3106 22.826 19.4337 22.7607H20.9683C21.221 22.7607 21.4635 22.6603 21.6422 22.4816C21.821 22.3028 21.9214 22.0604 21.9214 21.8076C21.9214 21.5548 21.821 21.3124 21.6422 21.1337C21.4635 20.9549 21.221 20.8545 20.9683 20.8545H19.062C18.9699 20.8589 18.8789 20.8773 18.7923 20.9088C18.5967 20.8547 18.4241 20.7381 18.3007 20.5769C18.1774 20.4158 18.11 20.2187 18.1089 20.0157C18.1089 19.763 18.2093 19.5205 18.388 19.3418C18.5668 19.163 18.8092 19.0626 19.062 19.0626H20.9683C21.221 19.0626 21.4635 18.9622 21.6422 18.7835C21.821 18.6047 21.9214 18.3623 21.9214 18.1095C21.9214 17.8567 21.821 17.6143 21.6422 17.4355C21.4635 17.2568 21.221 17.1564 20.9683 17.1564H19.062C18.8092 17.1564 18.5668 17.056 18.388 16.8772C18.2093 16.6985 18.1089 16.456 18.1089 16.2032C18.1089 15.9505 18.2093 15.708 18.388 15.5293C18.5668 15.3505 18.8092 15.2501 19.062 15.2501H20.9683C21.221 15.2501 21.4635 15.1497 21.6422 14.971C21.821 14.7922 21.9214 14.5498 21.9214 14.297C21.9214 14.0442 21.821 13.8018 21.6422 13.623C21.4635 13.4443 21.221 13.3439 20.9683 13.3439H19.062C18.8092 13.3439 18.5668 13.2435 18.388 13.0647C18.2093 12.886 18.1089 12.6435 18.1089 12.3907C18.1089 12.138 18.2093 11.8955 18.388 11.7168C18.5668 11.538 18.8092 11.4376 19.062 11.4376H25.7339C25.9026 11.4376 26.0682 11.3928 26.214 11.3078C26.3597 11.2228 26.4802 11.1006 26.5633 10.9538C26.6463 10.8069 26.689 10.6407 26.6867 10.472C26.6845 10.3033 26.6376 10.1382 26.5507 9.99364L25.772 8.69548C25.3779 8.03912 25.1697 7.28795 25.1697 6.52235C25.1697 5.75676 25.3779 5.00558 25.772 4.34923L31.69 11.1164C31.7796 11.2177 31.8899 11.2987 32.0133 11.3541C32.1367 11.4095 32.2705 11.4379 32.4058 11.4376H36.2183V21.9363C34.6316 22.0333 33.1078 22.5915 31.8339 23.5423C30.7602 24.3442 29.4567 24.7787 28.1167 24.7814H21.1141C21.0659 24.7737 21.0171 24.7698 20.9683 24.7699H19.062C18.8222 24.755 18.597 24.6501 18.4312 24.4762C18.2655 24.3023 18.1716 24.0722 18.1682 23.832C18.1648 23.5918 18.2523 23.3592 18.413 23.1807C18.5738 23.0022 18.7961 22.8911 19.0353 22.8694Z" fill="#DC2C2C"/>
<path d="M48.5384 28.0851L47.9484 31.5268C47.9183 31.7021 47.9379 31.8823 48.005 32.047C48.072 32.2117 48.1838 32.3544 48.3277 32.4589C48.4715 32.5634 48.6418 32.6256 48.8192 32.6384C48.9965 32.6512 49.174 32.6142 49.3314 32.5314L52.4214 30.9063L55.5114 32.5266C55.6688 32.6094 55.8463 32.6465 56.0236 32.6337C56.201 32.6209 56.3713 32.5587 56.5151 32.4542C56.659 32.3496 56.7708 32.207 56.8378 32.0422C56.9048 31.8775 56.9244 31.6973 56.8944 31.5221L56.3044 28.0803L58.8073 25.647C58.9345 25.5228 59.0244 25.3656 59.0669 25.193C59.1094 25.0205 59.1029 24.8395 59.048 24.6705C58.993 24.5015 58.892 24.3512 58.7561 24.2366C58.6203 24.122 58.4551 24.0476 58.2793 24.0219L54.8242 23.5196L53.2792 20.3886C53.1918 20.2397 53.067 20.1163 52.9172 20.0305C52.7674 19.9448 52.5978 19.8997 52.4252 19.8997C52.2526 19.8997 52.083 19.9448 51.9332 20.0305C51.7834 20.1163 51.6586 20.2397 51.5712 20.3886L50.0243 23.5196L46.5692 24.0219C46.3934 24.0476 46.2282 24.122 46.0924 24.2366C45.9566 24.3512 45.8555 24.5015 45.8006 24.6705C45.7456 24.8395 45.7391 25.0205 45.7816 25.193C45.8241 25.3656 45.914 25.5228 46.0412 25.647L48.5384 28.0851ZM50.7906 25.3334C50.9435 25.3112 51.0888 25.2521 51.2138 25.1613C51.3388 25.0705 51.4399 24.9506 51.5083 24.812L52.4214 22.963L53.3345 24.812C53.4029 24.9506 53.504 25.0705 53.629 25.1613C53.754 25.2521 53.8993 25.3112 54.0522 25.3334L56.0919 25.6308L54.6136 27.069C54.503 27.177 54.4204 27.3101 54.3727 27.4571C54.3251 27.604 54.3139 27.7603 54.34 27.9126L54.6879 29.9456L52.8636 28.9858C52.7267 28.9137 52.5743 28.876 52.4195 28.876C52.2647 28.876 52.1123 28.9137 51.9753 28.9858L50.153 29.9456L50.5008 27.9126C50.5273 27.7605 50.5163 27.6042 50.469 27.4573C50.4217 27.3104 50.3394 27.1771 50.2292 27.069L48.7528 25.6308L50.7906 25.3334Z" fill="#DC2C2C"/>
<path d="M4.69483 28.0851L4.10485 31.5268C4.07482 31.7021 4.09442 31.8823 4.16145 32.047C4.22847 32.2117 4.34024 32.3544 4.48413 32.4589C4.62801 32.5634 4.79826 32.6256 4.97564 32.6384C5.15301 32.6512 5.33043 32.6142 5.48783 32.5314L8.57787 30.9063L11.6679 32.5266C11.8253 32.6094 12.0027 32.6465 12.1801 32.6337C12.3575 32.6209 12.5277 32.5587 12.6716 32.4542C12.8155 32.3496 12.9273 32.207 12.9943 32.0422C13.0613 31.8775 13.0809 31.6973 13.0509 31.5221L12.4609 28.0803L14.9638 25.647C15.091 25.5228 15.1809 25.3656 15.2234 25.193C15.2659 25.0205 15.2593 24.8395 15.2044 24.6705C15.1495 24.5015 15.0484 24.3512 14.9126 24.2366C14.7768 24.122 14.6116 24.0476 14.4358 24.0219L10.9807 23.5196L9.43568 20.3886C9.34829 20.2397 9.22351 20.1163 9.07371 20.0305C8.92391 19.9448 8.75429 19.8997 8.58168 19.8997C8.40906 19.8997 8.23945 19.9448 8.08965 20.0305C7.93985 20.1163 7.81507 20.2397 7.72768 20.3886L6.17694 23.5196L2.72187 24.019C2.54528 24.044 2.37924 24.1181 2.24264 24.2328C2.10604 24.3474 2.00436 24.4981 1.94916 24.6677C1.89395 24.8373 1.88743 25.019 1.93035 25.1921C1.97327 25.3652 2.06389 25.5228 2.19193 25.647L4.69483 28.0851ZM6.94707 25.3334C7.1 25.3112 7.24524 25.2521 7.37027 25.1613C7.4953 25.0705 7.59637 24.9506 7.66477 24.812L8.57787 22.963L9.49096 24.812C9.55936 24.9506 9.66043 25.0705 9.78546 25.1613C9.91049 25.2521 10.0557 25.3112 10.2087 25.3334L12.2484 25.6308L10.7701 27.069C10.6595 27.177 10.5769 27.3101 10.5292 27.4571C10.4816 27.604 10.4703 27.7603 10.4965 27.9126L10.8444 29.9456L9.02202 28.9858C8.88508 28.9137 8.73264 28.876 8.57787 28.876C8.42309 28.876 8.27065 28.9137 8.13371 28.9858L6.30943 29.9456L6.65732 27.9126C6.68373 27.7605 6.67281 27.6042 6.62549 27.4573C6.57817 27.3104 6.49588 27.1771 6.38568 27.069L4.90738 25.6308L6.94707 25.3334Z" fill="#DC2C2C"/>
<path d="M30.5 29.5469C22.9191 29.5555 15.6511 32.5708 10.2906 37.9313C4.93013 43.2918 1.91483 50.5597 1.90625 58.1406C1.90625 58.3934 2.00667 58.6358 2.18541 58.8146C2.36416 58.9933 2.60659 59.0938 2.85938 59.0938H9.53125C9.78403 59.0938 10.0265 58.9933 10.2052 58.8146C10.384 58.6358 10.4844 58.3934 10.4844 58.1406C10.4844 52.8322 12.5932 47.7411 16.3468 43.9874C20.1005 40.2338 25.1915 38.125 30.5 38.125C35.8085 38.125 40.8995 40.2338 44.6532 43.9874C48.4068 47.7411 50.5156 52.8322 50.5156 58.1406C50.5156 58.3934 50.616 58.6358 50.7948 58.8146C50.9735 58.9933 51.216 59.0938 51.4688 59.0938H58.1406C58.3934 59.0938 58.6358 58.9933 58.8146 58.8146C58.9933 58.6358 59.0938 58.3934 59.0938 58.1406C59.0852 50.5597 56.0699 43.2918 50.7094 37.9313C45.3489 32.5708 38.0809 29.5555 30.5 29.5469ZM29.5469 36.2426C26.3974 36.376 23.3144 37.192 20.5112 38.634L18.1523 34.4888C21.6761 32.6419 25.5707 31.6125 29.5469 31.477V36.2426ZM31.4531 31.477C35.5629 31.6178 39.5834 32.7132 43.1966 34.6766L40.7804 38.7855C37.9015 37.2486 34.7137 36.3795 31.4531 36.2426V31.477ZM8.59814 57.1875H3.83252C3.97459 53.0929 5.06463 49.0871 7.01691 45.485L11.1277 47.8945C9.60114 50.7644 8.73678 53.9398 8.59814 57.1875ZM12.0913 46.2504L7.9767 43.8438C10.1498 40.437 13.0625 37.5636 16.4986 35.4372L18.8566 39.5804C16.1444 41.2867 13.8359 43.5626 12.0913 46.2504ZM42.4226 39.7539L44.8379 35.6469C48.2376 37.8215 51.1043 40.7335 53.2254 44.1669L49.0735 46.5125C47.372 43.8047 45.1027 41.4988 42.4226 39.7539ZM52.4019 57.1875C52.2678 54.0455 51.4549 50.9698 50.019 48.1719L54.1661 45.8224C56.0061 49.338 57.0327 53.222 57.1703 57.1875H52.4019Z" fill="#DC2C2C"/>
<path d="M37.6479 41.4707C37.2194 41.2258 36.7174 41.1426 36.2328 41.2362C35.7483 41.3297 35.3133 41.5938 35.0068 41.9806C35.0068 41.9806 29.2795 49.2453 29.2661 49.2491C28.3556 49.493 27.5379 50.0014 26.9163 50.71C26.2947 51.4187 25.8973 52.2957 25.7742 53.2302C25.6511 54.1648 25.8079 55.1148 26.2248 55.9602C26.6417 56.8056 27.2999 57.5084 28.1163 57.9797C28.9326 58.451 29.8704 58.6696 30.8109 58.6079C31.7515 58.5462 32.6527 58.207 33.4005 57.6331C34.1482 57.0592 34.709 56.2765 35.0119 55.3839C35.3148 54.4913 35.3462 53.5289 35.1021 52.6184C35.1021 52.6041 38.5257 44.0127 38.5257 44.0127C38.7081 43.554 38.7197 43.0452 38.5586 42.5787C38.3975 42.1122 38.0744 41.719 37.6479 41.4707ZM32.9776 55.2815C32.6948 55.771 32.2732 56.1658 31.766 56.4158C31.2589 56.6658 30.6891 56.7599 30.1285 56.6861C29.568 56.6123 29.0419 56.374 28.6167 56.0013C28.1915 55.6286 27.8864 55.1382 27.7399 54.5921C27.5934 54.046 27.6121 53.4688 27.7936 52.9333C27.9751 52.3978 28.3112 51.9282 28.7596 51.5837C29.2079 51.2393 29.7484 51.0355 30.3125 50.9981C30.8767 50.9607 31.4392 51.0914 31.9291 51.3736C32.2547 51.5612 32.5402 51.8112 32.7691 52.1091C32.998 52.4071 33.166 52.7473 33.2633 53.1102C33.3607 53.4732 33.3856 53.8517 33.3366 54.2243C33.2875 54.5968 33.1655 54.9561 32.9776 55.2815ZM36.7586 43.3026L33.8678 50.5053C33.2888 49.8895 32.5407 49.4584 31.7175 49.2663L36.5041 43.1577C36.5264 43.13 36.5579 43.1111 36.5928 43.1045C36.6277 43.0979 36.6639 43.1039 36.6948 43.1215C36.7251 43.1393 36.748 43.1673 36.7593 43.2005C36.7707 43.2338 36.7698 43.27 36.7567 43.3026H36.7586Z" fill="#DC2C2C"/>
<path d="M30.758 54.7701C31.2665 54.6337 31.5681 54.1111 31.4318 53.6026C31.2955 53.0942 30.7728 52.7925 30.2644 52.9288C29.7559 53.0651 29.4543 53.5878 29.5906 54.0963C29.7269 54.6047 30.2496 54.9064 30.758 54.7701Z" fill="#DC2C2C"/>
<path d="M41.1651 45.9588C41.0723 45.8697 40.9625 45.8003 40.8421 45.7548C40.7218 45.7092 40.5935 45.6886 40.4649 45.694C40.3364 45.6993 40.2102 45.7307 40.0941 45.7862C39.978 45.8416 39.8744 45.92 39.7894 46.0166C39.7044 46.1132 39.6398 46.226 39.5996 46.3482C39.5593 46.4704 39.5443 46.5995 39.5552 46.7277C39.5662 46.8559 39.6031 46.9805 39.6635 47.0941C39.724 47.2077 39.8068 47.3078 39.907 47.3885C42.0729 49.2807 43.6181 51.7819 44.3409 54.5656C44.4085 54.8054 44.5673 55.0093 44.7833 55.1335C44.9994 55.2577 45.2554 55.2923 45.4967 55.23C45.738 55.1677 45.9452 55.0134 46.0741 54.8001C46.203 54.5868 46.2432 54.3316 46.1862 54.089C45.3682 50.9357 43.6184 48.1023 41.1651 45.9588Z" fill="#DC2C2C"/>
<path d="M30.4922 43.844C30.5199 43.844 30.6247 43.8526 30.6524 43.8526C30.894 43.8506 31.1252 43.7538 31.2962 43.583C31.4671 43.4122 31.5642 43.1811 31.5664 42.9395C31.5689 42.6899 31.4769 42.4486 31.3087 42.2642C31.1405 42.0797 30.9088 41.9658 30.66 41.9453C30.6324 41.9453 30.5275 41.9368 30.4999 41.9368C26.9061 41.935 23.4138 43.1279 20.5722 45.328C17.7306 47.5281 15.7011 50.6104 14.8029 54.0901C14.7715 54.2114 14.7643 54.3377 14.7818 54.4617C14.7992 54.5858 14.841 54.7052 14.9046 54.8131C14.9683 54.921 15.0526 55.0153 15.1527 55.0906C15.2528 55.1659 15.3668 55.2207 15.4882 55.2519C15.5661 55.2715 15.6461 55.2814 15.7264 55.2815C15.9377 55.2814 16.143 55.2112 16.31 55.0818C16.477 54.9524 16.5962 54.7712 16.6491 54.5666C17.4413 51.4981 19.2307 48.7799 21.7359 46.839C24.2412 44.8981 27.3203 43.8445 30.4894 43.844H30.4922Z" fill="#DC2C2C"/>
<defs>
<linearGradient id="paint0_linear" x1="28.1172" y1="2.85937" x2="28.1172" y2="25.7344" gradientUnits="userSpaceOnUse">
<stop stop-color="#DBDBDB"/>
<stop offset="1" stop-color="#A8A8A8"/>
</linearGradient>
<linearGradient id="paint1_linear" x1="40.0312" y1="8.57812" x2="40.0313" y2="24.7812" gradientUnits="userSpaceOnUse">
<stop stop-color="#DBDBDB"/>
<stop offset="1" stop-color="#A8A8A8"/>
</linearGradient>
<linearGradient id="paint2_linear" x1="52.4219" y1="20.8096" x2="52.4219" y2="31.6876" gradientUnits="userSpaceOnUse">
<stop stop-color="#DBDBDB"/>
<stop offset="1" stop-color="#A8A8A8"/>
</linearGradient>
<linearGradient id="paint3_linear" x1="8.57812" y1="20.8096" x2="8.57812" y2="31.6876" gradientUnits="userSpaceOnUse">
<stop stop-color="#9C9C9C"/>
<stop offset="1" stop-color="#404040"/>
</linearGradient>
<linearGradient id="paint4_linear" x1="16.6797" y1="44.1628" x2="16.6797" y2="58.1404" gradientUnits="userSpaceOnUse">
<stop/>
<stop offset="1" stop-color="#5D5D5D"/>
</linearGradient>
<linearGradient id="paint5_linear" x1="42.5227" y1="34.3184" x2="42.5227" y2="58.1408" gradientUnits="userSpaceOnUse">
<stop/>
<stop offset="1" stop-color="#5D5D5D"/>
</linearGradient>
<linearGradient id="paint6_linear" x1="23.6694" y1="30.4999" x2="23.6694" y2="58.1405" gradientUnits="userSpaceOnUse">
<stop/>
<stop offset="1" stop-color="#5D5D5D"/>
</linearGradient>
<linearGradient id="paint7_linear" x1="30.5" y1="37.1719" x2="30.5" y2="58.1406" gradientUnits="userSpaceOnUse">
<stop stop-color="#9C9C9C"/>
<stop offset="1" stop-color="#404040"/>
</linearGradient>
<linearGradient id="paint8_linear" x1="30.5" y1="50.0391" x2="30.5" y2="57.6641" gradientUnits="userSpaceOnUse">
<stop/>
<stop offset="1" stop-color="#5D5D5D"/>
</linearGradient>
</defs>
</svg>
